<svg xmlns="http://www.w3.org/2000/svg" viewBox="0 0 130.2 115.27"><defs><style>.cls-1,.cls-2{fill:#fff;}.cls-1,.cls-2,.cls-3,.cls-4{stroke:#000;stroke-miterlimit:10;}.cls-1,.cls-4{stroke-width:2px;}.cls-4{fill:none;}</style></defs><g id="Layer_2" data-name="Layer 2"><g id="레이어_1" data-name="레이어 1"><path class="cls-1" d="M129.2,59.67C129.2,24.27,100.5,1,65.1,1S1,24.27,1,59.67s28.7,54.6,64.1,54.6S129.2,95.07,129.2,59.67Z"/><ellipse class="cls-2" cx="44.89" cy="55.23" rx="13.03" ry="21.74"/><path class="cls-3" d="M46.38,53.88c0-1.3,3.19-2.42,5.81-3-1-6.11-3.92-10.56-7.42-10.56C40.48,40.33,37,47,37,55.23s3.47,14.9,7.76,14.9c4,0,7.27-5.78,7.71-13.21C49.8,56.38,46.38,55.22,46.38,53.88Z"/><path class="cls-2" d="M52.19,50.89c-2.62.57-5.81,1.69-5.81,3s3.42,2.5,6.1,3c0-.55.05-1.12.05-1.69A27.47,27.47,0,0,0,52.19,50.89Z"/><line class="cls-4" x1="44.89" y1="27.19" x2="44.89" y2="33.46"/><line class="cls-4" x1="37.32" y1="29.02" x2="40.46" y2="34.77"/><line class="cls-4" x1="52.46" y1="29.02" x2="49.33" y2="34.77"/><ellipse class="cls-2" cx="85.3" cy="55.23" rx="13.03" ry="21.74"/><path class="cls-3" d="M86.79,53.88c0-1.3,3.19-2.42,5.81-3-1-6.11-3.92-10.56-7.42-10.56-4.29,0-7.76,6.67-7.76,14.9s3.47,14.9,7.76,14.9c4,0,7.27-5.78,7.71-13.21C90.21,56.38,86.79,55.22,86.79,53.88Z"/><path class="cls-2" d="M92.6,50.89c-2.62.57-5.81,1.69-5.81,3s3.42,2.5,6.1,3c0-.55,0-1.12,0-1.69A27.47,27.47,0,0,0,92.6,50.89Z"/><line class="cls-4" x1="85.3" y1="27.19" x2="85.3" y2="33.46"/><line class="cls-4" x1="77.73" y1="29.02" x2="80.87" y2="34.77"/><line class="cls-4" x1="92.87" y1="29.02" x2="89.74" y2="34.77"/><path class="cls-4" d="M77.54,81.66c0,6-5.57,10.83-12.44,10.83S52.65,87.64,52.65,81.66"/></g></g></svg>