<svg xmlns="http://www.w3.org/2000/svg" viewBox="0 0 129.35 114.53"><defs><style>.cls-1,.cls-2{fill:#fff;}.cls-1,.cls-2,.cls-3,.cls-4{stroke:#000;stroke-miterlimit:10;}.cls-1,.cls-4{stroke-width:2px;}.cls-4{fill:none;}</style></defs><g id="Layer_2" data-name="Layer 2"><g id="레이어_1" data-name="레이어 1"><path class="cls-1" d="M128.35,59.28C128.35,24.12,99.84,1,64.68,1S1,24.12,1,59.28s28.51,54.25,63.68,54.25S128.35,94.45,128.35,59.28Z"/><ellipse class="cls-2" cx="44.6" cy="54.87" rx="12.94" ry="21.6"/><path class="cls-3" d="M49.19,53.53c0-1.29,3.16-2.4,5.77-3-1-6.07-3.9-10.49-7.37-10.49-4.26,0-7.71,6.62-7.71,14.8s3.45,14.8,7.71,14.8c4,0,7.22-5.74,7.65-13.12C52.59,56,49.19,54.86,49.19,53.53Z"/><path class="cls-2" d="M55,50.56c-2.61.57-5.77,1.68-5.77,3s3.4,2.48,6.05,3c0-.55,0-1.11,0-1.68A27.2,27.2,0,0,0,55,50.56Z"/><path class="cls-2" d="M44.6,76.74c4.95,0,9.25-4.64,11.43-11.45a31,31,0,0,0-11.14-2A30.55,30.55,0,0,0,33.24,65.5C35.44,72.2,39.7,76.74,44.6,76.74Z"/><line class="cls-4" x1="44.6" y1="27.02" x2="44.6" y2="33.25"/><line class="cls-4" x1="37.08" y1="28.83" x2="40.2" y2="34.55"/><line class="cls-4" x1="52.12" y1="28.83" x2="49.01" y2="34.55"/><ellipse class="cls-2" cx="84.75" cy="54.87" rx="12.94" ry="21.6"/><path class="cls-3" d="M89.33,53.53c0-1.29,3.17-2.4,5.78-3-1-6.07-3.9-10.49-7.38-10.49-4.26,0-7.71,6.62-7.71,14.8s3.45,14.8,7.71,14.8c4,0,7.22-5.74,7.66-13.12C92.73,56,89.33,54.86,89.33,53.53Z"/><path class="cls-2" d="M95.11,50.56c-2.61.57-5.78,1.68-5.78,3s3.4,2.48,6.06,3c0-.55,0-1.11,0-1.68A28.43,28.43,0,0,0,95.11,50.56Z"/><path class="cls-2" d="M84.75,76.74c5,0,9.25-4.64,11.42-11.45a30.94,30.94,0,0,0-11.13-2A30.51,30.51,0,0,0,73.39,65.5C75.59,72.2,79.85,76.74,84.75,76.74Z"/><line class="cls-4" x1="84.75" y1="27.02" x2="84.75" y2="33.25"/><line class="cls-4" x1="77.23" y1="28.83" x2="80.34" y2="34.55"/><line class="cls-4" x1="92.27" y1="28.83" x2="89.15" y2="34.55"/><path class="cls-4" d="M77,81.12c0,5.95-5.54,10.77-12.36,10.77S52.31,87.07,52.31,81.12"/></g></g></svg>