<svg xmlns="http://www.w3.org/2000/svg" viewBox="0 0 1920 1080"><defs><style>.cls-1{opacity:0.4;}.cls-2{fill:#fff;}</style></defs><g id="Layer_2" data-name="Layer 2"><g id="레이어_1" data-name="레이어 1"><g class="cls-1"><path class="cls-2" d="M513,1080H451a10.78,10.78,0,0,0,.71-1.86A366.55,366.55,0,0,1,479,992.4c.46-1,.69-2.12,1.24-3.83a48,48,0,0,0-5.78.34c-22.39,4.21-44.68,9.09-67.19,12.46-11.46,1.72-16.84,7-18.85,18.09-3.64,20.27-8.2,40.37-12.37,60.54H285l5.5-51.17c-1.42.18-2.86.3-4.28.55-27,4.77-54,9.62-81,14.26-3.26.56-4.07,2-4.06,4.94,0,10.47-.08,21-.13,31.42H131c-.45-11.23-.89-22.45-1.33-33.58L69,1042.14V1080H13v-46.19L0,1032V960c2,.16,3.91.34,5.87.49,4.2.31,8.41.6,12.59.93-.66,5.13-1.54,10.23-1.92,15.37-1.27,17.27-2.29,34.57-3.55,51.84-.26,3.5.7,5.09,4.45,5.43,5.62.53,11.18,1.75,16.79,2.53,11.18,1.55,22.38,3,33.59,4.5,2-24,3.93-47.53,5.9-71.24a21.88,21.88,0,0,0-2.71-.68c-11.4-1.43-22.83-2.69-34.22-4.27-6.17-.86-12.27-2.25-18.4-3.4,1.38-11.7,2.67-23.41,4.16-35.1,1.63-12.85,3.44-25.67,5.17-38.5,18.26,1.63,36.51,3.21,54.75,5,3.57.35,5.26-.22,6-4.31,2.57-14.76,5.75-29.4,8.49-44.13,1.63-8.76,2.85-17.6,4.33-26.87L38,815c-3.47,24.93-6.81,49-10.16,73L0,886V813H36.89c-.12.27.1,0,.12-.32,1.49-20.75-1.23-41.12-5.93-61.25-.28-1.19-2.69-2.58-4.17-2.66C18,748.32,9,748.22,0,748V686c3.14.13,6.28.26,9.44.37a20.45,20.45,0,0,1,2.45,4.08c5.93,17.82,11.89,35.63,17.55,53.54,1,3.09,2.11,4.22,5.38,4.23,18.49.08,37,.41,55.46.62,1.57,0,3.13-.2,5.24-.34-.74-2.49-1.16-4.42-1.88-6.23-5.52-13.91-11.53-27.65-16.51-41.75-3.41-9.64-8.45-13.9-19.4-13.32-16.08.84-32.27-.4-48.41-.76L0,662V626H39.79L10.92,568.91l55.53,5.49L36.76,521.7a473.87,473.87,0,0,0,65.1,9.86L77.7,482.86c14.71,1.46,29.38,3.5,44.13,4.21,14.4.69,28.88,0,43.32-.05q12.48,19.71,24.95,39.44a42.83,42.83,0,0,1,2,4c-1.27.48-2.56,1.33-3.86,1.36q-30.67.85-61.36,1.5c-7.27.15-14.55,0-22,0a37.76,37.76,0,0,0,2.16,3.56c9,12.2,18.11,24.28,26.9,36.61,2.73,3.82,5.78,5.18,10.41,5,18.62-.78,37.27-1.07,55.89-1.85,9.07-.39,18.11-1.46,27.13-2.21,0-.86.13-1.28,0-1.47Q210.72,552.45,194,532a9.69,9.69,0,0,0-2-1.46,38.16,38.16,0,0,0,6.41,0c29.4-4.54,58.79-9.08,88.15-13.84,8.1-1.32,16.09-3.33,24.55-5.11-1-2-1.6-3.37-2.29-4.67-6.66-12.66-13.47-25.25-19.9-38-1.79-3.55-3.57-4.19-7.35-3.21-31.08,8.07-62.42,14.89-94.34,18.74-7.4.89-14.8,1.83-22.2,2.74-7.89-15.48-14.63-31.42-18.71-48.37-.7-2.9-2.07-3.6-4.9-3.44a265.42,265.42,0,0,1-59.24-3.54c-5.5-.91-11-2.05-17.27-3.23,1,6,1.52,11.28,2.8,16.37,3.2,12.72,6.74,25.36,10.15,38L16.63,469c4.81,18.17,12.06,35.7,20.3,52.86L0,514V462l14.67,5.26c-2.34-17.38-5-34.32-6.72-51.36-.58-5.71-2.51-8.83-7.95-9.9V337l11.25,4.85c6.63-25,13.2-49.81,20-75.32L0,253V217q8-19,16.1-38c2-4.71,4.08-9.37,6.36-14.57L0,158V91L7.28,73H0V0H30a26.38,26.38,0,0,1-.59,3.9q-7.9,25.71-15.94,51.39C11.75,60.77,9.7,66.16,7.65,72c2,.29,3.44.57,4.89.69C28.13,74,43.73,75.08,59.31,76.54c3.63.34,5.44-.65,6.73-4C75.28,48.32,84.66,24.17,94,0h65c-8.42,27.89-22,53.55-35.28,79.56a10.46,10.46,0,0,0,2.21.44c21.19-2.22,42.39-4.39,63.55-6.83,1.58-.18,3.49-2,4.33-3.5C206.08,47.16,217.87,24.42,226,0h69a38.63,38.63,0,0,1-1.13,5.82c-5,14.1-10.07,28.17-15.14,42.24-.58,1.61-1.22,3.19-1.94,5a11,11,0,0,0,2.19.15c26.31-5,52.62-10,78.88-15.3,1.44-.29,3.32-2.65,3.52-4.23C362.8,22.51,363.84,11.25,365,0h73l3,31-79,6.21c-4.68,32.55-16,61.85-27.16,92.08,2.4-.63,3.93-1,5.48-1.43,22.1-5.49,44.1-11.48,66.35-16.28,13.77-3,27.94-4.11,41.94-6.07a20.87,20.87,0,0,0-1,3.73q-2.79,38.64-5.47,77.28c-.12,1.61-.17,3.23-.28,5.36,2.44-.42,4.36-.8,6.3-1.06,12.21-1.65,24.38-3.82,36.65-4.78,24.75-1.94,49.55-3.23,74.33-4.74,2.39-.15,4.5.06,4.86-3.4,2.35-22.73,4.65-45.46,1-68.27-.55-3.43-1.27-6.83-1.95-10.45-1.89,0-3.38-.06-4.86,0-22.63,1.12-45.27,2.16-67.89,3.44-14,.79-27.9,2-41.86,3-.33-1.7-.77-3.41-.94-5.14q-3.39-34.83-6.73-69.67L533.13,28,519,0h89l18.88,30.92c-2.65,0-5.31,0-8-.05l-77.85-2c-1.71,0-3.43,0-5.18,0a7.89,7.89,0,0,0,.12,1.81q1.11,2.24,2.31,4.42c10.47,19.2,19.87,38.86,24.81,60.31.84,3.68,3,3.6,5.81,3.68,22.29.64,44.58,1.28,66.86,2.2,6.21.26,12.39,1.47,18.58,2.25.62,1.39,1.57,2.72,1.82,4.18,3.08,17.35,3,34.8,1.44,52.28-.63,6.89-1.34,13.77-2,20.95l60.9,2.18c2.66-25,5.22-49.68,2.63-74.69-17.4-1.53-34.13-3-50.87-4.42-4.61-.38-9.26-.32-13.89-.47-.16-2.58,0-5.25-.54-7.74-5.42-23.18-15.09-44.6-27.13-65l75.15,5.83c-.94-2.58-1.54-4.44-2.28-6.24Q693.31,15.16,687,0h66q5.5,21,11,42l-59.33-4.5c5.67,23.63,11.27,46.93,17.05,71,4.38.43,10.15.86,15.89,1.58,10.67,1.35,21.32,2.86,32,4.3a5.07,5.07,0,0,1,.62,1.81q-1.79,32.08-3.65,64.17c-.13,2.39-.4,4.77-.64,7.61l44.74,2.66c2.3-24.06,4.52-47.26,6.76-70.72-7.1-.93-13.17-1.82-19.27-2.5-9.55-1.06-19.11-2-28.67-2.93a52.94,52.94,0,0,0,.76-6.34,319.84,319.84,0,0,0-6.42-66.33l51.93,7.6c-.61-6.06-1-11.82-1.8-17.52-1.52-10.63-3.29-21.23-5-31.85h54l3.09,58L817.28,51.4v68.88l46.93,3.51c-2.77,22.26-5.55,44.52-8.35,66.91,15.39,0,30.83.06,46.28-.13,1,0,2.64-1.8,2.9-3,1.1-5,1.82-10.15,2.63-15.24q3.62-22.87,7.18-45.71L864,124l1.89-66.16c17.41,1.18,34.82,2.33,52.23,3.56,3.09.22,4.9-.27,5.05-4.08C924,38.17,925.05,19.09,926,0h68c-1.33,12.05-2.58,24.1-4,36.13-.92,7.7-2.13,15.36-3.19,22.87.8.39,1.1.67,1.39.66,19.77-.75,39.55-1.46,59.31-2.45,1.24-.06,3.16-2.25,3.42-3.69C1054.08,35.71,1057,17.85,1060,0h67c-3.2,18.19-6.41,36.38-9.68,54.94,1.94,0,3.59,0,5.23,0,18.94-.22,37.89-.61,56.84-.53,4.45,0,6-1.51,6.81-5.61,3.13-16.29,6.51-32.54,9.8-48.8h70c-2.68,18.24-5.37,36.48-8.08,55-.27-.2-.13,0,0,0,23.3.77,46.6,1.57,69.9,2.16,1,0,2.82-1.82,2.93-2.94,1.88-18,3.54-36.1,5.25-54.16h69c-.33,18.61-.56,37.23-1.06,55.84-.09,3.52,1.34,4.17,4.35,4.22,19.61.31,39.22.74,58.84,1.1,1.92,0,3.84-.2,4.87-.25V0h72c1.17,17.35,2.34,34.7,3.54,52.57L1623,39.26c-.19-2.46-.36-4.44-.51-6.42Q1621.26,16.42,1620,0h74c.94,8.27,2.07,16.52,2.73,24.82.3,3.7,1.53,4.6,5.24,4.41,20-1,39.93-1.67,59.9-2.47,1.3-.05,2.59-.18,4.61-.33-.85-9-1.66-17.71-2.48-26.43h66c.56,6.87,1,13.75,1.71,20.62.37,3.88,1.06,7.73,1.61,11.59l-65.69-5.8c1.19,21.88,2.3,42.26,3.41,62.62l63.44,5.88c0-10,.17-19.75,0-29.52-.24-11.11-.83-22.21-1.27-33.31a40.45,40.45,0,0,1,5.4.17q25.11,4,50.19,8.07l6,.94c-.93-14.19-1.82-27.72-2.71-41.26h28V47l-24.47-4.89c.62,22.13,1.22,43.67,1.81,65.2l-61.65-12.44c-.58,24.68-1.14,47.94-1.69,71.2-7.88-1.26-15.74-2.63-23.64-3.75-13-1.83-25.94-3.5-39.34-5.3-1.47,25.13-2.89,49.41-4.3,73.55L1829,241.7c.5-6.32,1.09-12.42,1.46-18.53q1.73-28.63,3.34-57.27l61.37,11.61c.33-8.57.73-17,1-25.45.41-15,.71-29.92,1-44.88L1920,112v72l-23.35-5.14c-.57.63-.77.74-.78.86-1.63,24.06-3.27,48.11-4.74,72.18a3.8,3.8,0,0,0,2.31,2.9c8.83,1.56,17.7,2.84,26.56,4.2v76l-32.55-2.81V402H1920v68h-28.7v65.73L1920,537v69h-29.18c-.08,1.4-.2,3.19-.27,5q-1.27,31.44-2.53,62.89a10.1,10.1,0,0,1-1.94.33q-30.46-.63-60.92-1.3c-1.1,0-2.21.1-4.19.2-.9,23.91-1.79,47.59-2.7,71.74,2.46,0,3.75,0,5,0,18.64-.27,37.28-.71,55.93-.72,4.38,0,5.64-1.22,5.79-5.55.77-21.63,1.86-43.24,2.84-64.86L1920,675v70h-35.19c-.6,23.11-1.18,45.6-1.76,68h37v69h-34.36c.76,23.2,1.49,45.24,2.21,67H1920v69h-30.38c0,2.75,0,4.72,0,6.69q.2,27.66.38,55.31h-60v-57.2l-43.69,5.71c-14,1.83-13.79,1.85-14.31,16.17-.44,11.78-1.32,23.55-2,35.32h-58c.88-12.17,1.76-24.35,2.65-36.77-20.36,4.41-39.57,8.52-58.72,12.85-1.08.24-2.39,2.22-2.52,3.49-.66,6.79-1,13.62-1.41,20.43h-68v-14.61h-73.22c-.29,5.44-.54,10-.78,14.61h-73c-.2-3.64-.68-7.3-.52-10.93s-1.43-4.61-4.9-5c-21.47-2.72-42.9-5.72-64.34-8.63l-6.24-.87V1080h-81c0-2.16.15-4.32.1-6.47q-.45-18.18-1-36.35a31.15,31.15,0,0,1,4.84.29q33,7,66,14c3.16.67,6.37,1.16,9.93,1.81,0-2.21.1-3.7,0-5.17-1.8-22.25-3.72-44.48-5.38-66.74-.27-3.52-1.58-4.76-4.94-5.32-10.84-1.81-21.61-4-32.43-6-14.73-2.66-29.48-5.23-44.22-7.85-2.36-25-4.76-50.06-7-75.1-.28-3-2.1-3.25-4.4-3.41-14-1-27.89-2.31-41.86-3-9.92-.48-19.89-.1-29.71-.1q2.84,36,5.47,69.51L1273,962.11q1.65,20.05,3.32,40.11l2.94,35.12q-39.69-7.41-79.39-14.79a8.59,8.59,0,0,0-1.87.22q1,28.65,2,57.23h-72c-.57-18.6-1.27-37.2-1.6-55.81-.08-4.36-1.73-5.28-5.63-5.07q-29.12,1.61-58.26,2.86c-4,.17-5.32,1.6-5.29,5.67.1,17.45-.12,34.9-.22,52.35H982q.94-24.45,1.9-48.92l71.81-9.43V951.94c-2.4-.11-3.53-.27-4.66-.21-16.79.92-33.58,1.92-50.38,2.78-4.06.2-8.14,0-12.22-.08a47.14,47.14,0,0,1-1.15-5.11c-1.15-9.89-1.71-19.88-3.46-29.66-1.81-10.06-4.75-19.91-7.19-29.85h63.25c.08-.53.25-.9.15-1.18-6.34-18.54-12.63-37.1-19.21-55.56-.44-1.22-3-2.34-4.62-2.38-9.15-.24-18.32-.15-27.48-.15H961.05c1.74,6.2,3.69,12.83,5.45,19.51,3.5,13.28,6.88,26.59,10.32,39.89l-58.46-2.29c.84,12.39,2,24.3,2.37,36.23s.09,23.84.09,36.2c.4,0,1.85.09,3.29,0q30.1-2.13,60.21-4.35a18.69,18.69,0,0,0,4.16-1.35,32.49,32.49,0,0,0-.68,3.88q-1.9,36.5-3.74,73l-73.28,9q-1.39,19.93-2.78,39.77H832c1.7-11.66,3.4-23.33,5.12-35.19a17.12,17.12,0,0,0-2.74-.53c-21.49-.34-43-.71-64.46-.82a5.14,5.14,0,0,0-3.82,3.13c-2.23,11.09-4.11,22.26-6.1,33.41H692c2.8-14.28,5.6-28.55,8.45-43.11l-60.07-9.79c-.85,3.47-1.76,6.65-2.38,9.88-2.71,14.33-5.34,28.68-8,43H571a331,331,0,0,1,19.7-70.16c-.61-.74-.77-1.13-1-1.22-14.67-5-29.32-10-44.08-14.64-1.12-.36-3.75,1.19-4.38,2.48C528.23,1023.09,518.2,1050.74,513,1080ZM907.09,355.81c-5.65,17.52-11.31,35.05-17.07,52.92,15.45-4.22,29.53-8,43.54-12,1.17-.34,2.18-2.22,2.73-3.59q8.88-22.12,17.56-44.33c.39-1,.62-2,1.07-3.44-2.84.41-5.15.59-7.4,1.08-13.3,2.86-26.58,5.79-39.87,8.7L927.93,305a8.46,8.46,0,0,0-1.91-.15c-14.26,3.27-28.52,6.49-42.73,10-1.33.33-2.81,2.15-3.28,3.58-3.49,10.7-6.78,21.46-10.06,32.23-1.91,6.25-3.69,12.55-5.65,19.26ZM639.6,697.54c-10.38-2-20.72-4.36-31.16-6-8.75-1.35-17.62-1.84-25.79-2.64l22.58,44.23a232.74,232.74,0,0,0-72.13,3.37,119,119,0,0,1,15.89,53c21.86-3.25,43-3.33,65.14,2.79-.56-9.39-.36-18-1.74-26.43-1.81-11.08-4.84-22-7.36-32.93,17.81,2.45,34.67,8.08,51.49,15.37a284,284,0,0,0-8.22-30.41c-2.38-7-5.82-13.68-8.77-20.49l49.67,17.3a25.13,25.13,0,0,0-.49-3.86c-4.45-15.49-8.86-31-13.6-46.41-.51-1.64-3-3.46-4.78-3.79-13.25-2.43-26.56-4.53-39.86-6.65-3.47-.56-7-.84-11.48-1.37,5,10.42,9.46,19.68,13.79,29C635.2,686.9,637.34,692.25,639.6,697.54ZM812.88,514.19V449.13c-2.69,1.31-5.44,2.85-8.33,4-9.8,4-19.65,7.84-29.49,11.74,1.19-21.51,2.39-43,3.59-64.65-10.21,1.76-20.33,3.52-30.46,5.23-6.19,1-12.39,2-18.59,3a47.36,47.36,0,0,0,1.24-5.81c1.07-11.59,2-23.2,3-34.8.88-9.73,1.85-19.45,2.78-29.25h-53.1c-3.1,23.92-6.15,47.53-9.34,72.14,16.94-.87,32.54-1.68,48.14-2.44,2.45-.12,4.9,0,7.37,0q-1.12,28.17-2.23,56.34c-.14,3.64-.06,7.3-.07,10.95-7.25.48-14.5,1-21.75,1.45-12.09.75-24.17,1.44-36.74,2.19-1.58,21.8-3.14,43.39-4.63,64.09,11.87,0,23.31.15,34.73,0,8.27-.16,16.53-.79,24.81-1.22.07,1.65.24,3.3.21,4.94-.25,17.32-.56,34.64-.77,52,0,2.79.32,5.59.57,9.44l54.53-5c-1.63-24.21-3.18-47.14-4.67-69.26l-50,8.07c.44-6,1-11.9,1.3-17.86.86-16.26,1.63-32.52,2.42-48.8a34.77,34.77,0,0,1,4.72-1.73q21.54-4.64,43.09-9.14c-1.66,22.27-1.38,44.54-.87,67.73,6.18-2.56,11.33-4.41,16.22-6.79,7.57-3.69,15-7.73,22.45-11.63.82,23.93,4.06,47.56,8.23,72.13,9.59-6.21,18.18-12.23,27.22-17.46,5.24-3,6.21-6.57,5.3-12.21-2-12.3-3.39-24.71-4.74-37.1-1-8.85-1.47-17.75-2.23-27.23Zm8.83-126.71c-1.4,9.7-2.92,19.38-4.19,29.1-1.33,10.13-2.42,20.29-3.75,31.57,12-6.43,22.71-12.38,33.64-18,2.91-1.5,4-3.49,4.56-6.46,1.51-8.51,3.07-17,4.89-25.46,1.91-8.87,4.15-17.68,6.45-27.35-9.56,3.73-18.36,7.12-27.11,10.61-4.91,2-9.74,4.1-14.61,6.15a25.87,25.87,0,0,0,1.07-3.26q5-27,9.87-54a36.32,36.32,0,0,0,.3-3.93c-14.16,2.34-27.89,4.87-41.7,6.72-4.54.61-5.59,2.56-5.94,6.54-1.59,18.41-3.4,36.79-5.1,55.18-.13,1.41,0,2.83,0,4.64,3.45-.85,6.39-1.44,9.24-2.29C800.12,394.06,810.9,390.77,821.71,387.48Zm-93.2,284.17a14.18,14.18,0,0,0,.29-2.95c-1.34-13.55-2.81-27.09-4.07-40.64-.6-6.4-.82-12.84-1.27-20.11H663.17c3.73,17.06,7.41,34.19,11.36,51.25.28,1.21,2.49,2.54,4,2.82,15.69,2.86,31.42,5.5,47.13,8.26a12.27,12.27,0,0,1,2.9,1.35,24.89,24.89,0,0,1,1.13,3.79c2.47,17.77,5,35.53,7.2,53.34.35,2.76,1,4.17,3.83,4.76,5.37,1.14,10.63,2.85,16,3.79,10.56,1.85,21.19,3.32,31.57,4.92a9.41,9.41,0,0,0,.7-2c-1.09-20.95-2.23-41.89-3.29-62.84-.16-3-1.65-3.67-4.5-3.74-12.65-.31-25.29-.91-37.93-1.41C738.35,672.09,733.43,671.87,728.51,671.65Zm979.28-235.82,53.32,20.43c-.71-23-1.4-45.18-2.08-67.37q24.12,4.5,48.24,9c4.47.84,9,1.63,13.46,2.42a29.48,29.48,0,0,1,.41,2.93c.68,19.63,1.45,39.25,1.91,58.89.09,4.09,1.4,5.47,5.43,5.51,19.48.2,39,.62,58.42.93a25.09,25.09,0,0,0,3-.41c-.87-22.05-1.73-43.9-2.6-65.89-1.56-.17-2.53-.34-3.5-.37q-29.68-1-59.37-2a22.43,22.43,0,0,0-3.86.55,8.29,8.29,0,0,0,.32-1.46c.81-24.31,1.66-48.61,2.25-72.93,0-1.15-2.07-3.11-3.46-3.43-8-1.79-16-3.17-24-4.74-11.08-2.17-22.14-4.38-34.19-6.76-.78,26.43-1.54,52.19-2.31,77.95-1.13-.18-2.27-.29-3.39-.56q-28-6.69-56-13.44c-.16-22.95-.4-45.91-.38-68.86,0-3.6-1-5-4.63-5.25-18.26-1.12-36.51-2.45-54.77-3.66a37.78,37.78,0,0,0-5.12.53c1.83,22.1,3.63,43.78,5.41,65.44-12.36-1.49-24.7-3.08-37.06-4.43-10.71-1.17-21.44-2.06-32.16-3.07q-2.46-30.74-5-61.51a41.68,41.68,0,0,1,4.84-.38q29.21,1.1,58.4,2.27c1.77.07,3.55,0,4.89,0v-70l-72,5.82c.79,13.71,1.48,26.66,2.29,39.61.48,7.63,1.14,15.24,1.73,22.86a16.22,16.22,0,0,0-2.46-.42q-39.43-1.22-78.87-2.38a26.27,26.27,0,0,0-3.46.38,12.14,12.14,0,0,0-.3,2.13c.82,18.46,1.74,36.92,2.44,55.38.14,3.6,2,3.86,4.8,3.92,16.64.35,33.28.8,49.92,1.25q16.44.43,32.87.95a19.72,19.72,0,0,0,.35,3.94c4.38,15.5,8.91,31,13.2,46.5.92,3.33,2.67,4.22,6,4.46,12.77.94,25.53,2,38.25,3.48,7.53.85,15,2.48,23,3.86-2.28-8.84-4.71-17.08-6.49-25.45-2.06-9.69-3.55-19.5-5.29-29.26L1700,374.91q4,30.54,8,61.09c-17.89-6.33-35.6-13.28-54.64-16.92,4.32,17.55,8.4,34.38,12.73,51.13.35,1.35,2.27,2.68,3.76,3.29,14.76,6.08,29.59,12,44.4,18,1.13.45,2.3.81,4.48,1.57C1715,473.39,1711.37,454.61,1707.79,435.83Zm17.54,119.49a278.09,278.09,0,0,0-49.14-23.57c-.36,1-.59,1.27-.57,1.57a378.24,378.24,0,0,1-2.42,65.75c-.18,1.37,1.63,3.69,3.11,4.49,11.53,6.27,23.22,12.25,34.82,18.4,2.88,1.52,5.62,3.32,8.81,5.22a43.22,43.22,0,0,0,.93-4.39c1.16-12.42,2.49-24.83,3.31-37.27.66-10.1.69-20.23,1-30.37a51,51,0,0,1,4.87,2.21c11.92,7,23.81,14,35.72,21,1.51.89,3.1,1.63,6.19,3.24-1.22-21.6-2.28-41.82-3.65-62-.1-1.37-2.27-3-3.85-3.8-10.47-5.1-21-10-31.57-14.95-4.47-2.11-8.91-4.28-14-6.72.19,2.29.26,3.74.44,5.19,1.41,11.73,3,23.45,4.25,35.19C1724.35,541.41,1724.76,548.38,1725.33,555.32ZM973.61,124.41a9,9,0,0,1,.18,2.4c-2.75,13.5-5.57,27-8.31,40.47-1.3,6.38-2.46,12.78-3.75,19.55,19.2-1.26,37.44-2.39,55.66-3.81,1.24-.1,2.94-2.29,3.34-3.8,2.95-11.06,5.62-22.19,8.39-33.3,2-8.14,4.08-16.27,6.29-25.07-11.6.53-22.38.92-33.14,1.55-9.6.56-19.17,1.4-28.76,2.12a11.35,11.35,0,0,0,1.27-2.63Q979,100.62,983,79.33c1.16-6.11,2.16-12.25,3.3-18.72l-62.61,1.74-7.79,63.13c9.24,0,18,.14,26.82,0C953,125.25,963.31,124.78,973.61,124.41Zm854.94,831.08c-.25-12.62-.37-25.24-.79-37.86-.33-9.75-1-19.5-1.62-29.63L1768,894.61c1.46,22.83,2.88,45.13,4.32,67.85,12.42-1.73,24.26-3.47,36.13-5,6.69-.86,13.43-1.36,20.14-2,.46,15.1,1,30.21,1.36,45.32.17,7,0,13.91,0,21l59-4.91c-.57-22.32-1.15-44.63-1.75-67.86-17,1.55-33,3-49,4.52A94.06,94.06,0,0,0,1828.55,955.49ZM1100.11,117.84c5.41-20.41,10.83-40.83,16.29-61.41a13.78,13.78,0,0,0-2.56-.63c-20,.62-40,1.32-59.94,1.85-3.31.08-3.57,2.14-4.11,4.48-4.14,17.85-8.35,35.68-12.51,53.52-.35,1.53-.55,3.09-.78,4.4,5.67,0,10.8.19,15.92,0,15.95-.69,31.9-1.53,47.85-2.32-6.22,20.6-12.43,41.2-18.72,62.06a26.14,26.14,0,0,0,2.87.31c20-.41,39.91-.91,59.88-1.21,3.06,0,3.9-1.66,4.67-4.06,5.65-17.74,11.37-35.46,17-53.2.42-1.33.61-2.73.94-4.21-10.49,0-20.46,0-30.43,0C1124.38,117.49,1112.25,117.68,1100.11,117.84ZM658,816c-13.43-9.58-27.28-18.32-44-22.76-1.64,30-9.52,58.28-19.13,85.25l40.42,25.19c10.05-28.42,18.28-57.61,22.52-87.85a50.39,50.39,0,0,1,4.5,3.09c9,7.66,17.95,15.39,26.94,23.08,1.3,1.1,2.71,2.06,4.52,3.43,3.53-22.3,5.59-43.8,5.12-65.52a7.39,7.39,0,0,0-3.85-6.89c-7.08-4.37-13.93-9.12-21-13.5-5.32-3.28-10.87-6.21-16.88-9.62.72,6.51,1.88,12.12,1.85,17.72C658.93,783.73,658.36,799.85,658,816ZM1824.65,600.53a39,39,0,0,0,6.29,1.34c19,.89,37.9,1.67,56.85,2.45a13.19,13.19,0,0,0,2.52-.48V536.76l-65.57-2.06c0,22.06,0,44,0,66a27.17,27.17,0,0,1-4.78-.1c-15.15-2.94-29.34-8.57-43-15.61-1.51-.78-3.09-1.43-4.56-2.1-1.84,23.78-3.7,47-5.28,70.14-.09,1.29,1.86,3.47,3.31,4,12.3,4.54,24.64,9,37.11,13,4.32,1.4,9,1.63,14,2.48.83-14.57,1.75-28.33,2.36-42.1C1824.39,620.48,1824.43,610.5,1824.65,600.53ZM163.84,748.92c-1.8.17-3.61.49-5.42.49q-28,0-56,0H96.38c7.59,22.37,7.87,44.53,5.47,66.74a7.46,7.46,0,0,0,1.8.71c20.48.45,41,.94,61.44,1.16,1.22,0,3.43-2.1,3.54-3.37.88-10.27,2-20.58,1.81-30.86-.23-12-1.85-23.86-6.75-35h71.72c-.93-3.19-1.26-5-1.95-6.61Q222.74,717,211.91,691.76c-.62-1.46-1.08-3-1.62-4.49,1.31-.18,2.61-.49,3.91-.54q33.92-1.29,67.83-2.53c1.9-.08,3.78-.25,5.58-.36a5.86,5.86,0,0,0,0-1.58c-8-17.89-16-35.82-24.35-53.59-.68-1.45-3.64-2.64-5.5-2.58-17.13.55-34.24,1.41-51.36,2.15-9.89.42-19.77.8-30.19,1.22.83,1.54,1.32,2.55,1.88,3.51q14.77,25.17,29.57,50.32c.84,1.42,1.86,2.73,2.78,4.08a18.79,18.79,0,0,0-2.95-.39q-33.66.57-67.33,1.22c-.6,0-1.2.13-2.32.26,1,2,1.69,3.64,2.45,5.23,4.81,10,9.94,19.92,14.34,30.13C158.14,732,160.8,740.54,163.84,748.92ZM1397.56,122.39a38.56,38.56,0,0,1,.26,5.77c-1.41,14.42-2.93,28.83-4.39,43.25-.22,2.09-.29,4.2-.44,6.41a21.87,21.87,0,0,0,2.92.53c25.64.52,51.28,1,76.92,1.57,3.52.08,4.09-1.56,4-4.59-.65-16.14-1.16-32.3-1.76-48.44a11.49,11.49,0,0,0-.52-2.41c-23.28-.82-46.23-1.64-69.17-2.39-2.64-.08-5.28.27-7.92.41a20.54,20.54,0,0,0,1.3-4.2q2.41-26.86,4.67-53.75a32.6,32.6,0,0,0-.18-4.14l-71.86-2.48c-4,20.69-7.95,40.7-11.91,61,1.9.14,3.37.29,4.84.34,19.64.62,39.28,1.17,58.91,1.88C1388,121.33,1392.75,122,1397.56,122.39ZM1241,118q8.12-30.73,16.26-61.56a16.14,16.14,0,0,0-2.48-.6c-22-.34-44-.58-65.93-1-3.24-.07-3.72,1.62-4.39,4.05-5,18.12-10,36.2-15,54.3-.32,1.18-.41,2.42-.79,4.76h72.48q-8.62,27.57-17.23,55.16a36.06,36.06,0,0,0-.76,3.63,5.31,5.31,0,0,0,1.3.41c25.95-.22,51.91-.41,77.86-.83,1.32,0,3.39-1.85,3.78-3.21,1.6-5.59,2.68-11.33,4-17,2.72-12.14,5.45-24.28,8.33-37.07-4.24,0-7.87,0-11.5,0Q1273.92,118.54,1241,118ZM1124.7,949.36a23.55,23.55,0,0,1-1.51-4.77A336.37,336.37,0,0,0,1112,887.27l-70,3.85a21,21,0,0,0,.22,2.17c4.23,18.3,8.55,36.59,12.63,54.92.66,3,2.2,3.14,4.59,3.09,20.13-.4,40.27-.7,60.4-1.1a30.52,30.52,0,0,0,4.84-.91,21.38,21.38,0,0,0-.72,4.34c.63,20.13,1.44,40.24,2,60.37.09,3.79,1.37,4.67,5,4.72,17.12.26,34.25.76,51.37,1.32,4.72.15,9.42.8,14.63,1.26-.92-23.7-1.82-46.58-2.73-69.85-2.48-.18-4.43-.41-6.38-.44-19.3-.31-38.6-.56-57.89-.89A43.25,43.25,0,0,1,1124.7,949.36Zm-673-337c-1.16,0-2.31,0-3.46.14l-77.64,6.88c-4.54.4-9.1.72-15.15,1.2C361.83,638.4,368,655.24,374,672.15c1.36,3.89,3.56,4.36,7.23,3.63,12.08-2.4,24.24-4.42,36.34-6.69,18-3.37,35.92-6.82,54.2-10.3-.75-1.44-1.42-2.57-2-3.75C463.9,642.36,458,629.69,452.28,617c-.62-1.36-.49-3.06-.73-4.61a29.73,29.73,0,0,1,4.3-1c16.41-1.54,32.81-3.08,49.23-4.48,9.55-.81,19.13-1.37,27.67-2-2.2-18.76-4.33-37-6.58-56.28l-87.29,5c3.8,19.42,7.36,37.66,11,55.88C450.1,610.55,451.06,611.44,451.67,612.41ZM136.94,974.11c3.2-18,6.34-36,9.64-54,1.39-7.6,3.14-15.13,4.76-22.87l-63.93-3c-4.33,25.11-8.62,50-13,75.3,5.57.54,10.17,1.12,14.79,1.43,15.94,1.07,31.89,2,47.84,3.06-1.68,13.19-3.62,26.36-4.94,39.58-1.05,10.39-1.34,20.85-2,31.33a13,13,0,0,0,2.45.59c21.8-.52,43.61-1.1,65.41-1.56,3.15-.07,3.26-2,3.48-4.29,1.06-10.77,1.94-21.57,3.35-32.3,1.67-12.66,3.83-25.26,5.83-38.29-1.53.11-2.81.14-4.07.29-11.75,1.32-23.46,3.06-35.24,3.87C159.92,974,148.41,973.86,136.94,974.11Zm581.63-19.78a12.48,12.48,0,0,0,1.22-2.7q7.61-38,15.14-76.08c.65-3.24-.46-4.88-3.65-6.35-7.7-3.52-15.23-7.46-22.54-11.71-5-2.9-9.51-6.6-14.43-10.08-.46,1.51-.89,2.75-1.21,4-6.36,25.7-12.54,51.43-19.21,77-1.15,4.43-.32,6.42,3.4,8.72,12.89,8,27,12.8,41.4,17a14.91,14.91,0,0,1-.18,2.42c-4.33,18.6-8.75,37.19-13,55.82-1.75,7.68-3.14,15.45-4.87,24,21.2,1.94,41.59,3.77,62,5.72,3.16.31,3.93-1.2,4.44-3.88,3.52-18.47,7.23-36.9,10.74-55.37,1.32-7,2.26-14,3.21-20C759.72,960.05,739.13,957.2,718.57,954.33ZM849,963c3.14-25.87,7.06-51.68,6.55-78.68h-65c-2.73,25.55-5.48,51.26-8.34,78l66.94.51c-3.7,26.64-7.4,53.27-11.13,80.06a12.38,12.38,0,0,0,2.39.4c22.12-1.25,44.23-2.58,66.35-3.76,3.13-.16,3.75-1.78,4-4.42,2.38-23.36,4.85-46.71,7.27-70.06a38.54,38.54,0,0,0,0-4Zm765.84-444.11a18.06,18.06,0,0,1-2.39.48c-21.26,1.29-42.52,2.49-63.77,3.89-4.55.3-9.06,1.28-13.85,2,3.63,25.36,2.79,50-.26,75.21,4.91-1.13,8.79-2.05,12.68-2.89,22-4.78,44.14-8.64,66.82-7.56q-8.57,37.95-17.13,75.9c-1.58,6.9-3.4,13.74-5.29,21.33a187.84,187.84,0,0,1,62.26,9.74c.47-1.64.87-2.71,1.08-3.8,1.91-10.12,3.73-20.26,5.67-30.38q5.46-28.37,11-56.72c.43-2.23.77-4.11-2.15-5.18-18-6.59-36.3-11.06-55.58-10.77,1-17.74,2.25-35.47,2.83-53.22.2-6-1.33-12.1-2.06-18.15,20.33,1.6,40.36,4.9,60.85,12.19-2.61-16.62-5.66-31.65-7.1-46.83-.9-9.58-5.38-13-14.16-14.74-16.34-3.23-32.65-6.16-49.83-6.45,2.1,8.78,4.48,17.06,6,25.5C1612.28,498.51,1613.39,508.73,1614.81,518.89Zm-633.64,6.42a198.82,198.82,0,0,0-47.3,2.25c-4.29.75-5.42,2.41-4.87,6.59,2.83,21.45,5.18,43,8.22,64.4,1.69,12,4.37,23.8,6.55,35.35,7.93,0,15.07-.22,22.2.05,11.14.43,22.27,1.18,33.4,1.79a24.55,24.55,0,0,0,.48,3.44,487.28,487.28,0,0,0,41.47,103.62c1.51,2.81,3.43,3.6,6.4,3.47,21-.91,41.91-1.64,62.86-2.59,6.72-.31,13.42-1.14,20.94-1.79-1.43-2.5-2.34-4.23-3.38-5.87-17.52-27.45-32.5-56.18-43.45-86.91-1.31-3.68-3.56-4.43-7.06-4.79-26.15-2.69-52.28-5.61-78.43-8.44a22.26,22.26,0,0,1-.89-2.3c-9.23-35.6-14.47-71.83-17.3-108.45,3.3.09,6.65-.15,9.89.33,19.76,2.94,39.5,6,59.25,9,2,.31,4.11.39,6.34.59a21.38,21.38,0,0,0,.17-2.55c-2.09-24.37-4.14-48.74-6.43-73.09-.12-1.27-2.17-3.22-3.49-3.37-20.83-2.39-41.69-4.42-62.52-6.81-5.22-.59-6.75,1.31-6.48,6.24C979,478.78,980,502,981.17,525.31ZM611,412.09c-2.58,22.61-5.17,45.22-7.84,68.63l64.64-2.09c1.88-22.77,3.72-45.1,5.59-67.75-8.57,0-16.85-.16-25.13,0-12.47.3-24.93.86-37.4,1.31,3.63-24.5,7.27-49,11-73.86a31.46,31.46,0,0,0-4.2-.36c-23.93,1.3-47.85,2.68-71.78,3.92-3.46.18-4.43,1.92-4.8,5-2.56,21.31-5.24,42.62-7.84,63.93a45.75,45.75,0,0,0,0,5.14c7.76-.56,14.86-1.21,22-1.54C573.73,413.59,592.34,412.87,611,412.09Zm819.42,574.44c0,1.65-.17,3.31,0,5q2.85,34.1,5.79,68.17c.11,1.29.33,2.58.6,4.62h73.38q-2.19-36.63-4.4-73.41c-18-.74-34.59-1.31-51.21-2.16-8.08-.41-16.15-1.36-24.22-2.06-.41-1.76-.94-3.5-1.2-5.28-3.62-24.9-7.26-49.8-10.73-74.72-.47-3.4-1.6-4.72-5.21-5-15.44-1.29-30.85-2.92-46.26-4.52-7.37-.76-14.72-1.73-22.26-2.62,0,1.44-.07,2.1,0,2.75,3.19,25.46,6.45,50.92,9.53,76.39.4,3.33,2.28,3.93,5,4.32,15,2.22,29.95,4.77,45,6.7C1412.81,985.75,1421.63,985.92,1430.38,986.53Zm151.95,4.12c-.07,1.31-.25,2.63-.2,3.93q1.21,33.15,2.5,66.29a27.38,27.38,0,0,0,.72,3.53l68.34-7.92c-.75-24.58-1.48-48.1-2.22-72.2-3.78.53-6.22,1-8.67,1.19q-30.3,2.7-60.6,5.33c-.32-1.28-.73-2.55-.93-3.85-2.46-16.13-4.79-32.28-7.34-48.39-1.55-9.8-3.43-19.55-5.29-30h-75.13c4.32,27.09,8.68,54.47,13.24,83,17.38,0,35,.09,52.65,0C1567.05,991.44,1574.7,990.94,1582.33,990.65ZM1384.07,349c-.15-2-.47-4-.44-5.93.27-15.66.61-31.31.92-47,0-1.94,0-3.89,0-6.72h-99.12c-2.32,18.78-4.66,37.68-7,56.22l105.71,3.29c.76,20.07,1.46,40.15,2.43,60.21,0,1,2.49,2.61,3.82,2.61,33.78,0,67.57-.16,101.35-.33a29.8,29.8,0,0,0,4.3-.68,22.9,22.9,0,0,0-.54-2.41c-6.06-16.64-10.59-33.67-12.18-51.36-.33-3.56-2.3-3.73-5-3.82-21-.71-41.93-1.44-62.88-2.31C1405,350.36,1394.54,349.61,1384.07,349ZM844,747.91l45.72,2.94c-6.91-32.35-13.56-63.46-20.21-94.57a64.19,64.19,0,0,0,7.05-1.9c8.93-3.48,17.81-7.11,26.9-10.77.66,1.85,1.13,2.91,1.43,4q13.17,48.4,26.28,96.83c.85,3.16,2.47,4,5.69,3.82,13.14-.69,26.31-1.06,39.46-1.58.93,0,1.85-.27,3.42-.52A655.57,655.57,0,0,1,943.44,634l-40.41,9c-5-32.69-10-65.5-15.21-99.25-10.5,6.72-20.87,13.3-31.13,20a4,4,0,0,0-1.21,3.3q4,26.84,8.19,53.63c1.87,11.91,3.91,23.79,5.89,35.71-3.18,1.53-6.24,3.42-9.57,4.54-8.42,2.83-17,5.31-26,8.09-4.37-28-8.57-54.89-12.8-82-1.24.41-1.85.57-2.44.8-12.18,4.84-24.3,9.81-36.56,14.42-2.78,1-3,2.42-2.72,4.83,1.29,12.58,2.48,25.17,3.68,37.76.91,9.4,1.79,18.81,2.78,29.35l48.2-4.53c2,14.2,4.1,28.49,6,42.82,1.52,11.87,2.73,23.78,4.07,35.67l-53.83-5.59A22.88,22.88,0,0,0,790,745c.75,20.81,1.57,41.61,2.2,62.43.1,3.26,1.69,3.73,4.35,3.92,16.28,1.19,32.55,2.49,48.82,3.72,1.42.11,2.85,0,4.5,0-.15-1.85-.25-3.16-.36-4.47ZM533.11,874c-16.85,37.66-33.7,75.31-50.72,113.32a208.25,208.25,0,0,1,57.76,4.06c1.1.24,3.31-1.22,3.89-2.42,13.44-28,26.84-56,40-84.16,3.76-8,6.63-16.52,10.06-25.17A120.2,120.2,0,0,0,533,874.09c9.44-27,17.21-54.35,15.87-83.73-1.78.23-2.76.33-3.74.49-32.15,5.44-62.69,16.32-93,27.8-1.17.44-2.39,2.7-2.35,4.08.64,24.52-4.95,47.92-12.5,71-.61,1.84-1.19,3.68-2,6.29l5.38-1.74c15.21-4.9,30.24-10.47,45.68-14.52S517.47,877.17,533.11,874ZM425.83,429.28c2.14,20.5,4.28,41,6.45,61.85l95.14-7.44c1.3-22.65,2.58-44.81,3.86-67.16a26.62,26.62,0,0,0-2.72,0c-27,2.88-54,5.65-80.93,8.77-7.38.85-14.64,2.73-21.95,4.13-.68-22-1.35-44.05-2-66.34-1.78.48-3.54.9-5.27,1.43Q345.61,387,272.82,409.32c-3.18,1-4,2.37-3,5.34,5.28,14.53,10.61,29,15.75,43.63,1.62,4.58,3.79,5.7,8.79,4.31q50.25-14,100.7-27.22C405.18,432.74,415.57,431.3,425.83,429.28ZM310.1,945.73c5.76-25.42,12.43-50.67,15-77.05a11.55,11.55,0,0,0-2.39.17c-30.12,9.84-61,16.54-92.19,21.73-3.25.54-3.87,2.37-4.4,5q-6.75,33.27-13.6,66.53c-.38,1.87-.54,3.78-.85,6a36.77,36.77,0,0,0,4.58-.38q43.34-9.69,86.65-19.49a61.35,61.35,0,0,0,7.36-2.69q-9,39.71-18,79.42a6.13,6.13,0,0,0,.37,2,30.38,30.38,0,0,0,3.61-.36c30.69-7,61.38-14,92-21.31,1.93-.46,4.1-2.69,4.9-4.61,4.32-10.47,8.05-21.18,12.34-31.66,8.51-20.82,17.25-41.54,25.87-62.32.64-1.54,1-3.19,1.77-5.61-2.79,1-4.52,1.56-6.22,2.21-28.6,11-57.13,22.2-85.84,32.91C331,940,320.44,942.6,310.1,945.73ZM1424.79,631.32a49.77,49.77,0,0,1,.21,6.45q-3.6,41.29-7.34,82.58c-.17,1.92-.32,3.84-.54,6.49,2.94-.48,5.25-.63,7.43-1.23,27.62-7.52,55.24-15,82.79-22.81a7.65,7.65,0,0,0,4.33-4.65c8.5-30,16.44-60.07,20.86-91,.26-1.86.3-3.75.48-6-2.37.54-4,.85-5.58,1.29q-50.07,13.86-100.12,27.76a16.33,16.33,0,0,0-2.66,1.3,43.4,43.4,0,0,0,.62-4.93,439.41,439.41,0,0,0-4.48-73.2c-1.23-8.2-1.23-8.17-9.18-6.82-36.66,6.22-73.44,11-110.76,9.53a29.34,29.34,0,0,0-4.06.41c.19,1.69.24,3,.51,4.26,5.57,26,11.25,52.07,16.7,78.15.77,3.68,2.65,4.27,5.89,4.31a391.88,391.88,0,0,0,77.5-6.61C1406.53,634.87,1415.65,633.09,1424.79,631.32Zm-252-85.4a18.4,18.4,0,0,1-2.94.34c-35-1.31-69.86-3.46-104.5-8.7-2.06-.31-4.15-.43-6.67-.69.15,2.1.16,3.57.37,5a554.18,554.18,0,0,0,22.79,96.65c1.68,5,3.92,6.8,9.13,6.58,36.42-1.59,72.86-2.93,109.29-4.39a17.48,17.48,0,0,0,3-.7c-.35-1.25-.58-2.19-.87-3.11q-13.92-43.27-27.87-86.53c-.51-1.57-1.26-3.06-1.89-4.58l121.69,9.39c-.16-1.82-.17-2.95-.38-4-4.55-23.37-9.2-46.71-13.6-70.1-.63-3.36-2.36-3.73-5.12-3.91q-49.58-3.33-99.15-6.8l-18.23-1.21c.25,2.61.27,4.59.66,6.5q6.7,32.76,13.5,65.5C1172.37,542.71,1172.57,544.32,1172.82,545.92ZM217.66,171.8c-.46.46-1.08.83-1.35,1.38q-25.74,53-51.42,106.08a53.53,53.53,0,0,0-1.8,5.23c2.92-.37,5-.56,7.1-.93a565.74,565.74,0,0,0,116.22-34.29,11.52,11.52,0,0,0,5.63-6.12c13.15-35.81,26-71.7,39-107.58.51-1.42.89-2.9,1.49-4.86-1.52.33-2.19.39-2.8.61L217.49,172c.88-2.15,1.6-4.37,2.64-6.43q26.31-52.18,52.67-104.34c.88-1.73,1.55-3.56,2.6-6-1.86.32-3,.45-4,.7-25.49,5.75-51,11.46-76.45,17.39A8.41,8.41,0,0,0,190.16,77q-28.83,51.37-57.4,102.9c-.83,1.5-1.48,3.09-2.67,5.58,8-.38,15.12,0,21.93-1.17C174,180.47,195.79,176,217.66,171.8Zm223.53,20.91c-9.88,2.58-19.09,4.73-28.14,7.4-40.9,12-79.24,30.53-118.41,46.95a6.34,6.34,0,0,0-3.22,3.46c-9.33,28.32-19.47,56.43-24.1,86.06a31.48,31.48,0,0,0,0,4.3c13.56-4.42,26.77-8.43,39.78-13q60.53-21.39,120.86-43.3c1.57-.57,3.09-3.29,3.32-5.17,3.33-26.79,6.43-53.61,9.57-80.42C441,197.2,441,195.42,441.19,192.71Zm836,154.62H1173.85l17-53.76a7,7,0,0,0-1.62-.56c-26.48.54-53,1.06-79.44,1.81-1.45,0-3.44,1.75-4.18,3.2-3.86,7.56-7.39,15.28-11,23-3.77,7.91-7.54,15.83-11.86,24.88l90.06,2.43c-4.61,18.82-9.13,37.31-13.84,56.56l115.39,3.68C1275.28,387.69,1276.23,367.62,1277.19,347.33ZM71.15,178.47l-.71-2.11Q96.33,129,122.16,81.83C103.23,80.48,84.84,79.08,66.44,78c-1.3-.07-3.29,1.9-4,3.38q-18.74,38.93-37.19,78c-.75,1.59-1.37,3.25-2.27,5.39l47.24,13c-14,29.11-27.2,58.07-37.72,88.54,16.16,7.43,32.32,13.49,49.34,17,1,.2,3.08-1.51,3.54-2.75,11.62-31.44,26.26-61.47,42-91a35.66,35.66,0,0,0,1.41-3.3ZM424.9,361.78c1.44-.3,2.26-.4,3-.63,35.34-10.28,71.68-14.87,108.12-18.79,4-.43,5.21-1.87,5.69-5.63,2.94-23,6.11-45.9,9.19-68.85a21.79,21.79,0,0,0,0-2.8,8.5,8.5,0,0,0-1.77-.35c-38.86,2.19-77.3,6.87-114.62,18.6-3.14,1-4.1,2.71-4.34,5.7-1.71,22.09-3.54,44.17-5.3,66.25C424.77,357.24,424.9,359.22,424.9,361.78ZM1627.71,98.52l-76.13,14c-1.48-20.19-2.92-39.68-4.32-58.66L1474,62.44c.56,20,1.13,40.26,1.74,62l76-11.09c2,19.05,3.93,38.17,5.91,57.48l73.34-11.3C1629.92,139.49,1628.84,119.58,1627.71,98.52Zm-36.64,590.37a14.82,14.82,0,0,0-2.35-.35c-25.68.76-50.49,6.46-75,13.67-1.34.4-2.76,2.36-3.16,3.86-6.51,24.11-13.14,48.19-19.14,72.43-2.57,10.4-3.78,21.14-5.68,32.13,2.17.11,3.3.25,4.42.2,24.12-1.14,48.24-2.38,72.36-3.36,3.34-.13,3.68-1.93,4.17-4.3q8.54-40.81,17.14-81.61C1586.14,710.72,1588.63,699.91,1591.07,688.89Zm-386.82-48.32a21.84,21.84,0,0,0,.63,2.85c10.7,28,21.37,56,32.26,83.91.48,1.24,2.91,2.43,4.44,2.45,26,.4,51.9.61,77.85.85,2.45,0,4.9,0,7.88,0-.14-2-.12-3.64-.37-5.22-4-26-8.19-52-12.13-78-.55-3.62-2.14-4.71-5.59-4.56a87.61,87.61,0,0,1-10-.43c-29.4-2-58.8-4.3-88.31-2.34ZM264.09,343.4a6.73,6.73,0,0,0-1.59-.16c-1.45.39-2.89.8-4.32,1.25C221.1,356,183.84,366.9,145,370.59c-3.43.32-4.21,2-4.09,4.83.66,15.61.39,31.34,2.26,46.8,1.93,15.93-.46,12.76,15.15,11.41,35.61-3.08,70.11-11.95,104.38-21.73,3.19-.91,4.13-2.22,3.44-5.6a188.55,188.55,0,0,1-2.23-58.21C264,346.64,264,345.16,264.09,343.4Zm237,353.22-96.54,25.92c1.82,2.62,3,4.22,4.05,5.86,7.19,10.82,14.57,21.52,21.44,32.54,2.15,3.46,3.74,4.32,7.78,3,20.82-7,41.71-13.8,62.72-20.2,10.31-3.15,20.93-5.27,33-8.25L503,696.77c25.08-5.38,50.35-8.43,77.07-7.94-1.66-2.37-2.69-3.81-3.68-5.27-6.84-10-13.78-20-20.42-30.21-1.65-2.54-3.21-3.7-6.32-3.4-16.4,1.61-32.84,2.85-49.22,4.61-9.22,1-18.35,2.75-29.23,4.42Zm900.42-221.71a25.14,25.14,0,0,0-.3-3.43c-4.62-18.74-9.2-37.5-14.08-56.18-.35-1.36-2.91-3-4.49-3.06-33.78-1.18-67.58-2.09-101.36-3.23-4.12-.14-5.7,1-5.37,5.23q2.26,28.88,4.21,57.77c.27,4.08,2.22,5.09,6,5.33a699.86,699.86,0,0,0,95.84-.93C1388.43,475.94,1394.86,475.43,1401.54,474.91Zm1.27.58c.59,2.51,1,4.39,1.49,6.27,4.63,18.74,9.37,37.46,13.85,56.23,1.6,6.69,1.32,6.76,8.09,5.57l97.85-17.23c3-.54,6.07-1.1,9.39-1.7a61.14,61.14,0,0,0-.94-6.47c-4.2-15.74-8.55-31.45-12.67-47.21-1-4-3.06-5-7.15-4.64-27.52,2.45-55.06,4.62-82.59,6.9C1421.23,473.94,1412.34,474.69,1402.81,475.49ZM1133.6,742.71c2.38,3.88,4.34,6.77,6,9.82,10.35,19,21,37.82,30.69,57.11,2.51,5,4.82,5.64,9.72,5.14,24.49-2.49,49-4.55,73.54-6.78,1.1-.1,2.19-.34,3.45-.53-.14-1.6-.19-2.92-.39-4.22-3.48-22.94-9.32-45.28-16.49-67.32-1.41-4.31-3.45-5.12-7.53-4.62-23.46,2.86-46.94,5.52-70.42,8.22C1153,740.59,1143.73,741.58,1133.6,742.71Zm-581-479.62a26,26,0,0,0,2.86.33c27.11-1.09,54.21-2.25,81.31-3.21,3.2-.11,3.84-1.77,4.37-4.19,2.63-11.86,5.56-23.65,7.88-35.57,2.43-12.54,4.28-25.18,6.43-38a31.73,31.73,0,0,0-4.08-.62c-27.46,0-54.91,0-82.37-.09-3.73,0-4.71,1.64-5.17,5-2.46,18.14-5.11,36.25-7.76,54.36C555,248.27,553.83,255.46,552.62,263.09ZM325.54,867c2.95-.94,5.17-1.51,7.29-2.34q55.76-21.85,111.51-43.7c3.34-1.3,3.55-3.23,3.22-6.17a127.87,127.87,0,0,0-13.8-44.58c-1.53-3-3-3.48-6.23-2.39q-49.95,17-100.06,33.66c-3.2,1.07-2.8,2.74-2.73,5.19.52,17.61.9,35.22,1.26,52.83C326.05,861.64,325.75,863.78,325.54,867Zm1311.69-52.47c-1.81-.35-2.93-.67-4.06-.77-20.74-1.72-41.49-3.34-62.21-5.2-4.43-.4-5.53,1.35-6.11,5.44-4.25,29.87-2,59.47,2.92,89,.65,4,1.88,5.34,5.94,5.1,17.46-1,34.93-1.75,52.4-2.63,4.12-.21,8.22-.6,12.81-.94A318.38,318.38,0,0,1,1637.23,814.53Zm-227.64,1.66c-.12,1.45-.3,2.75-.3,4,0,26.1,3.68,51.83,7.61,77.55.48,3.13,2.2,3.55,4.77,3.73,21.77,1.54,43.54,3.16,65.32,4.74,1.42.1,2.85,0,4.89,0-6.05-31.3-10-62.11-6.72-93.88Zm6.67-86.62L1328.77,733c.32,3.27.74,6.9,1,10.53q2.52,31.63,5,63.26c.2,2.55,0,5,3.75,5.15q33.45,1.38,66.88,3c3.18.15,3.73-1.36,4-4.18,2.1-25.55,4.36-51.08,6.57-76.62C1416.06,732.35,1416.19,730.57,1416.26,729.57ZM314.1,511.49c7.75,16.4,15.14,32.21,22.78,47.9.51,1.05,2.87,1.84,4.3,1.73,26.88-2,53.74-4.23,80.61-6.4,5.91-.48,11.82-1,18.19-1.53L432.37,492C391.94,494.38,353.09,503.31,314.1,511.49ZM1699.91,822.62a13.58,13.58,0,0,0,.68-2c2.17-32,4.37-64.1,6.34-96.16a6.1,6.1,0,0,0-2.88-4.72c-14.54-6.61-29.21-12.94-43.87-19.3a52.87,52.87,0,0,0-5.23-1.67,29.85,29.85,0,0,0-1,3.33c-5.17,35.4-10.27,70.82-15.54,106.21-.57,3.81.24,5.35,4.24,5.84,8.75,1.07,17.44,2.66,26.17,4C1679.2,819.65,1689.54,821.11,1699.91,822.62ZM989.74,390.52a13.19,13.19,0,0,0,2.38,1c21.57,1.76,43.15,3.43,64.71,5.29,3,.26,3.93-1.05,4.93-3.52,5.82-14.35,11.83-28.62,17.77-42.92.61-1.46,1.18-2.94,2.07-5.18l-68.81-4.29c8.66-15.94,17.1-31.46,26.3-48.37-19.83,1.2-37.94,2.23-56,3.56-1.47.11-3.28,2-4.1,3.58-5.09,9.55-10,19.22-14.86,28.88C961.49,333.73,959,339,956,345c19.14-2.33,37.35-3.93,55.61-3.25Zm166.58,77.82c.65-21.25,1.28-42,1.92-62.68l-97.08-7.47a201.63,201.63,0,0,0-9.58,52.9c-.2,4.13,1.11,5.39,5.11,5.86,23.16,2.71,46.28,5.8,69.44,8.55C1136.34,466.72,1146.6,467.44,1156.32,468.34ZM64.55,362.52a12.16,12.16,0,0,0,2.13,1.39,215.62,215.62,0,0,0,71.22,6.62c3.34-.22,3.52-2.2,3.78-4.62,2.76-25.65,9.47-50.32,18.42-74.43.59-1.6,1-3.27,1.62-5.3a24.91,24.91,0,0,0-2.7,0c-23.88,3.4-47.75,3.91-71.55-.64-2.8-.53-3.88.46-4.62,3-3.18,10.84-7,21.53-9.64,32.49C69.84,334.85,67.35,348.9,64.55,362.52ZM1342.84,893.31A18.82,18.82,0,0,0,1343,891c-2.77-25.16-5.58-50.31-8.26-75.48-.33-3-2-3.28-4.4-3.4q-33.21-1.59-66.4-3.26c-2-.09-3.9,0-6.24,0,.18,2.32.26,4.11.45,5.88,2.23,21.37,4.62,42.73,6.6,64.12.37,4,2,4.88,5.44,5.27,12.75,1.42,25.47,3.08,38.19,4.71C1319.76,890.24,1331.11,891.77,1342.84,893.31Zm-1113-318.5a23,23,0,0,0,1.12,2.35c9.75,15.09,19.44,30.23,29.42,45.18,1,1.47,3.76,2.58,5.65,2.49,21.13-1,42.26-2.14,63.38-3.31,8.28-.47,16.56-1,24.85-1.57a7,7,0,0,0,.08-1.92c-5.57-17.63-11.21-35.23-16.74-52.88-1-3.12-2.95-2.79-5.46-2.49q-40.15,4.89-80.34,9.61C244.56,573.13,237.35,573.93,229.79,574.81ZM168.45,819.47c-5.49,25.39-11,50.71-16.47,76.21a21.39,21.39,0,0,0,2.64.46,352.6,352.6,0,0,0,69.12-5c3-.51,3.63-2.27,4.07-4.69,2.68-14.74,5.5-29.45,8.05-44.2,1.44-8.29,2.46-16.65,3.67-24.94Zm921.19,6.16c-1.11-2.38-1.72-4-2.61-5.55-13.92-23.47-27.81-47-41.93-70.32-.85-1.4-3.49-2.4-5.31-2.41-18-.09-35.95.07-53.92.19-1.42,0-2.83.23-4.76.4.91,2.2,1.52,3.91,2.31,5.53,11.79,24.43,23.54,48.87,35.55,73.19.75,1.53,3.52,3,5.3,3,12.81-.35,25.61-1,38.41-1.75C1071.41,827.34,1080.12,826.44,1089.64,825.63Zm388.69-591.12H1387.7c-.16,1.29-.46,2.74-.53,4.21-.76,15.14-1.39,30.28-2.29,45.41-.23,3.86.85,5.29,4.85,5.34,29.47.38,59,.95,88.42,1.43.44,0,.89-.33,1.84-.7C1479.45,272,1478.91,253.78,1478.33,234.51ZM847.93,490.19l34.12-19.84c2,24.67,4,48.39,6,72.26,10-4,19-7.57,28-11,3.72-1.41,9.24-1.31,10.95-3.89,1.85-2.77.23-7.87.08-12q-1.08-29.67-2.22-59.34c0-.23-.37-.45-1.29-1.5l-41.26,15.12c2.43-20,4.81-39.58,7.3-60.14-12.38,6-24.49,11.8-36.51,17.76a4.43,4.43,0,0,0-1.9,3.18q-2,27.36-3.66,54.74A29,29,0,0,0,847.93,490.19Zm340.24,390.14c-3.13-21.33-7.38-41.59-14.75-61.15-1.07-2.85-2.87-2.62-5.12-2.33-14,1.8-28,3.61-42.07,5.33-11.68,1.43-23.37,2.74-35.26,4.13a14.74,14.74,0,0,0,.4,2.17c6.52,18.13,13.17,36.22,19.48,54.43,1.13,3.27,2.9,3.45,5.58,3.22q19.14-1.64,38.29-3.18C1165.65,882.07,1176.57,881.24,1188.17,880.33ZM288.73,684.12c.88,2.41,1.47,4.11,2.11,5.78,6.27,16.32,12.67,32.59,18.71,49,1.3,3.54,2.85,4.64,6.49,3.92,15.5-3,31.13-5.53,46.54-9,13.43-3,26.64-7,40.61-10.76-1.46-2.14-2.52-3.57-3.45-5.08-7.6-12.32-15.38-24.53-22.63-37-2-3.43-3.87-4-7.47-3.55-15.2,1.81-30.42,3.48-45.67,4.78C312.55,683.15,301.07,683.47,288.73,684.12Zm-48.9,131.4c4.93-.5,9-.71,13.07-1.37q33.22-5.45,66.4-11.13c2.32-.39,5.33-.49,4.46-4.39q-5.7-25.78-11.34-51.59c-.6-2.74-2.14-3.11-4.7-2.95-22.23,1.45-44.48,2.74-66.72,4.1-1.58.09-3.16.3-5.33.51A155.33,155.33,0,0,1,239.83,815.52ZM1294.38,233.33c-1.85-.12-3.15-.31-4.44-.27-26.62.93-53.23,1.93-79.84,2.77-2.95.09-4,1.33-4.68,3.92-3.23,12.23-6.62,24.41-10,36.61-1.38,5.08-2.74,10.17-4.27,15.86l93.75-4.15C1288.12,269.64,1291.23,251.65,1294.38,233.33ZM639.61,1026.41c1.95-6.42,3.31-11.56,5.07-16.55q12.81-36.21,25.88-72.32c1.11-3,.7-4.77-2-6.58-4-2.67-7.75-5.76-11.54-8.75-7.16-5.64-14.26-11.34-21.17-16.84-14.82,34.4-29.46,68.41-44.49,103.3C607.57,1014.64,623.28,1020.42,639.61,1026.41ZM1829,242.86c-1.82,26.73-3.61,52.92-5.45,79.94l62.72,9c1.34-26.41,2.62-51.46,3.89-76.44Zm-436.49-63.43a8.38,8.38,0,0,0-1.58-.56c-27-.64-54-1.22-81-2-3.44-.09-4.17,1.69-4.69,4.39-2.39,12.27-4.9,24.51-7.28,36.78-.88,4.51-1.53,9.07-2.41,14.34h91.9Q1389.92,206.24,1392.47,179.43ZM1761,309.88c1.51-25.35,3-50.25,4.55-75.14.21-3.21-1.53-3.53-3.86-3.78-11.58-1.29-23.14-2.76-34.73-3.87-8.38-.8-16.81-1.14-24.59-1.64-.78.83-1,1-1,1.07-.61,23.79-1.24,47.58-1.65,71.37,0,1.07,1.89,2.85,3.16,3.14,3.71.83,7.57,1,11.36,1.58C1729.65,305,1745.09,307.41,1761,309.88ZM1651.83,984.39l60.93-12.15c-2.59-24.43-5.13-48.31-7.71-72.6L1640,905.38C1643.93,931.74,1647.8,957.51,1651.83,984.39Zm-950-722.54a21.55,21.55,0,0,0-3.36-.66c-18.31-.15-36.62-.22-54.93-.45-3,0-3.95,1.4-4.59,4-3.54,14.55-7.35,29-10.83,43.62-2.22,9.33-4,18.76-6,28,.93.43,1.22.68,1.52.68,19,.24,38,.52,56.93.52,1.21,0,3.17-2,3.52-3.43,3.17-12.57,6-25.23,9-37.82C695.93,284.9,698.87,273.52,701.81,261.85ZM599.44,546c1.45-22,2.86-43.27,4.3-65-24.63,1.1-48.09,2.2-71.55,3.15-3.54.15-3.42,2.28-3.45,4.72q-.29,27.24-.61,54.48c0,1.43.24,2.88.4,4.74Zm879.37-311.49,83.56-2.75c-1.56-20.54-3-40-4.54-59.53l-79,8.67Zm18.76,176.1c7.32,18.67,13.81,35.43,20.58,52.08.49,1.21,3,2.33,4.51,2.28,26.45-.86,52.89-1.9,79.34-2.93a6.72,6.72,0,0,0,1.58-.53c-.46-1.66-.82-3.27-1.35-4.83-4.74-14-9.63-28-14.21-42.06-1.07-3.29-2.74-4.39-6.06-4.36-20.65.2-41.3.26-61.94.35C1512.92,410.67,1505.83,410.64,1497.57,410.64Zm205.18-255.59c-2.88,0-5-.14-7.12,0-19.57,1.53-39.12,3.22-58.69,4.59-4.17.29-5.23,1.74-5,5.79,1.08,18.77,1.86,37.55,2.77,56.33a20.92,20.92,0,0,0,.46,2.89h66C1701.73,201.17,1702.24,178.31,1702.75,155.05Zm18.34,473.11c-.58.51-.78.6-.79.72-4.16,29.35-8.35,58.69-12.29,88.07-.19,1.44,1.56,4,3,4.67,14,5.89,28,11.49,42.09,17.1a45.39,45.39,0,0,0,5.72,1.47c.19-1.25.34-1.89.39-2.54,2.19-26.55,4.42-53.1,6.43-79.66a6,6,0,0,0-2.58-4.47c-12-7.44-24.24-14.63-36.38-21.91C1724.75,630.44,1722.83,629.23,1721.09,628.16Zm40.1,196.39,59.58-6.22c-.79-24.36-1.56-48.22-2.35-72.72-19.66,1.83-39,1.37-58.59-4.14C1758.42,769.36,1758.42,796.53,1761.19,824.55Zm-58.75-671,67.61,2.3v-66h-67.61Zm65,740.68q-3.48-35.06-6.76-67.92l-60.77-1.81c1.42,24.62,2.84,49.39,4.3,74.85ZM1129.57,238.81c4,0,7.34.14,10.64,0q25.66-1.23,51.33-2.6c5-.26,11.28,1,14.45-1.52s3.36-9,4.66-13.81c3.84-14.09,7.59-28.2,11.4-42.38a7.34,7.34,0,0,0-1.64-.49c-23.12.36-46.24.68-69.36,1.24-1.27,0-3.1,1.69-3.62,3-1.59,4-2.66,8.2-4,12.33C1138.91,209.13,1134.33,223.68,1129.57,238.81ZM1628.6,98l73.09-8.52c-1.42-19.8-2.83-39.44-4.25-59.16-1.85,0-2.84-.11-3.8,0-19.28,2.52-38.56,5-57.82,7.62-11.82,1.63-11.85,1.76-11,13.41C1626.06,66.74,1627.33,82.14,1628.6,98ZM1826.26,887.1l58.77-5.47c-.8-22.6-1.59-44.69-2.41-67.72l-61.47,4.79C1822.89,842.06,1824.56,864.42,1826.26,887.1Zm-54.78,142.27V962.06l-58.39,9.5c.69,24.1,1.34,47.11,2,70.11ZM790.63,883.53c.47-24.19.87-46.45,1.37-68.71.06-2.54-.9-3.52-3.36-3.77a79.69,79.69,0,0,1-11.34-1.67c-12-3-24-6.31-36-9.49-.69,10.74-1.28,22-2.18,33.2-.86,10.75-2,21.49-3.14,32.22-.41,3.65.33,5.89,4.28,6.88,4.83,1.2,9.43,3.37,14.29,4.4C766,879,777.6,881.05,790.63,883.53ZM41.94,628.34c1,2.06,1.65,3.69,2.44,5.28,8.35,16.65,16.82,33.24,25,50,1.64,3.37,3.6,4.46,7.22,4.45,18.63-.09,37.27.08,55.9.13,1.4,0,2.79-.18,5.53-.37-11.51-19.38-22.46-37.94-33.63-56.37-.68-1.11-3.07-1.6-4.69-1.66-16.12-.57-32.26-1-48.39-1.44C48.37,628.27,45.44,628.34,41.94,628.34ZM766.31,188.41l-48.5-4.31c-4.8,25.73-9.5,50.9-14.29,76.54l49.62,2.22C757.55,237.92,761.87,213.52,766.31,188.41Zm84.56,627.72c1.65,22.32,3.17,43.72,5,65.1.09,1.07,2.55,2.7,4,2.78,17.62.93,35.26,1.63,52.89,2.37,1.27,0,2.55,0,4.58,0-3.61-18.69-7.39-36.74-10.44-54.91-1-6.13-3.18-9.21-9.64-8.94-2.77.11-5.58-.81-8.38-1.2Q869.88,818.72,850.87,816.13ZM599.54,546.25c-.88,19.12-.89,37.2,2.76,55.07.24,1.19,2.67,2.67,4.15,2.75,13.62.73,27.26,1.24,40.9,1.69,5.1.17,10.2,0,15.29,0V546.25ZM1763.2,457.51a9.31,9.31,0,0,0-.22,1.94c1.87,18.36,3.69,36.72,5.78,55.05a6.06,6.06,0,0,0,3.5,4c12.07,4.24,24.17,8.41,36.41,12.11,5.11,1.54,10.58,1.9,16.62,2.93-.6-21.59-1.2-42.2-1.71-62.81-.08-3.24-2.25-3.09-4.42-3.34-8.92-1-17.91-1.74-26.73-3.32C1782.65,462.33,1773,459.76,1763.2,457.51ZM175,629.28c-1.08-1.94-1.39-2.69-1.86-3.32C162,611,151,596,139.69,581.15c-1.06-1.39-3.59-2.19-5.5-2.3-16.61-1-33.23-1.75-49.85-2.63-5.2-.27-10.38-.71-15.71-1.08a6.39,6.39,0,0,0,.3,1.52q16.45,25.29,33,50.53a5.06,5.06,0,0,0,3.56,2C128.29,629.32,151.08,629.28,175,629.28ZM891.26,751.39a17.93,17.93,0,0,0,0,3.53c4.48,21.21,9.18,42.38,13.39,63.65.74,3.75,2.18,5,5.6,5.34,13.07,1.3,26.13,2.78,39.2,4.11,3.39.35,6.82.4,10.31.59a8,8,0,0,0,0-2.06q-12.93-37.29-26-74.54a4.19,4.19,0,0,0-3.07-2.37C917.58,750.09,904.49,750.76,891.26,751.39ZM64.68,428.14a293.65,293.65,0,0,1-.34-61.2c.11-1.17-1.77-3.21-3.15-3.74-7.92-3-16.07-5.47-23.95-8.61-8.32-3.32-16.43-7.2-25.07-11-3.53,20.92-5.57,41.68-4.94,62.66,0,1.23,1.95,2.94,3.36,3.5,8.32,3.35,16.68,6.65,25.17,9.52C45,422.37,54.42,425,64.68,428.14ZM1129.07,240.25c-2.28-.28-2.94-.44-3.58-.43-20,.33-40,.59-59.94,1.16-1.53.05-3.65,1.93-4.37,3.49-6.85,14.62-13.47,29.35-20.13,44.06-.58,1.28-1.07,2.6-2.25,5.53,22.28,0,43.42,0,64.55-.09,1.34,0,3.45-.94,3.91-2C1114.54,275,1121.62,258,1129.07,240.25ZM1004.38,243c1.59,0,3.24.07,4.88,0,16.3-.82,32.59-1.8,48.9-2.41,3.69-.14,5.25-1.56,6.26-4.85,4.58-15,9.34-29.89,14-44.83,1-3.13,1.79-6.31,2.91-10.31-20.22,1-39.65,2-59.07,3.16-1,.06-2.39,1.68-2.7,2.81C1014.47,205.18,1009.52,223.82,1004.38,243ZM905.07,191.4l-9.48,63.42a14.21,14.21,0,0,0,2.54.24c15.85-1.93,31.7-3.83,47.52-6,1.25-.17,2.94-2,3.25-3.36,3.19-13.56,6.18-27.17,9.11-40.78,1.2-5.56,2.14-11.18,3.31-17.35ZM736.43,338c16.63-1.5,31.84-2.79,47-4.4,1-.1,2.21-2.5,2.46-4,1.36-8.18,2.28-16.43,3.66-24.61,2.31-13.69,4.86-27.35,7.34-41.22h-44.8C747,288.22,741.86,312.34,736.43,338ZM855.22,191.14c-14.57,0-28.36-.09-42.14.17-1.11,0-2.87,2.33-3.15,3.8-3.44,18.48-6.66,37-9.93,55.52-.68,3.83-1.37,7.65-2.17,12.13,14.91-.95,29-1.78,43.09-2.86a4.48,4.48,0,0,0,3-2.9C847.73,235.55,851.34,214.06,855.22,191.14ZM618.76,652.27c-1-2.32-1.69-3.94-2.27-5.62-4.28-12.6-8.73-25.16-12.66-37.87-1.05-3.36-2.35-4.51-5.76-4.44-20.32.39-40.64.61-61,.91a4.93,4.93,0,0,0-1.45.62,6.79,6.79,0,0,0,.2,2c5.66,13.13,11.24,26.3,17.18,39.31.62,1.36,3.39,2.39,5.21,2.46,14.65.6,29.3.87,43.94,1.4C607.46,651.18,612.73,651.79,618.76,652.27ZM925,453.55l51.9-5.61c3.87-18.54,7.74-37.12,11.9-57.08-17,1.83-33.82,3.55-50.61,5.61-1.34.17-3,2.44-3.47,4-2.12,7.86-4.24,15.76-5.66,23.77C927.34,434,926.32,443.89,925,453.55ZM833.47,325.72c15.62-3.6,30.2-6.87,44.71-10.42,1.3-.32,2.73-2.32,3.12-3.79q6-22.67,11.64-45.43a93.75,93.75,0,0,0,1.39-9.59c-16.28,1.27-31.71,2.53-47.15,3.62-2.92.21-3.94,1.4-4.31,4.21-1,7.6-2.27,15.15-3.44,22.73C837.51,299.52,835.59,312,833.47,325.72Zm169.87-82.14c-18.88,2-35.91,3.74-52.91,5.8-1.29.16-2.79,2.45-3.37,4.05-5,13.87-9.87,27.81-14.8,41.72-1,2.68-2,5.31-3.22,8.31,13.21-2.12,25.63-5.41,38.12-5.74,11.37-.3,16.24-5.75,19.84-15.17C991.84,269.89,997.45,257.52,1003.34,243.58ZM691.18,716.63a24.77,24.77,0,0,0,0,2.91c2.58,17.69,5.12,35.39,7.89,53.05a7.09,7.09,0,0,0,3,4.47c10.63,6.17,21.39,12.11,32.16,18,1.94,1.07,4.1,1.75,7.62,3.23-1.42-21.7-2.68-42.07-4.23-62.42-.11-1.37-2.15-3.17-3.69-3.76-6.34-2.44-12.87-4.39-19.28-6.7C707,722.64,699.27,719.66,691.18,716.63Z"/><path class="cls-2" d="M11.09,569.08,0,568V547Q5.55,558,11.09,569.08Z"/></g></g></g></svg>