<svg xmlns="http://www.w3.org/2000/svg" viewBox="0 0 91.05 95.88"><defs><style>.cls-1,.cls-2{fill:#f4e3c6;}.cls-1,.cls-2,.cls-3,.cls-4{stroke:#000;}.cls-1,.cls-3{stroke-linejoin:round;}.cls-2,.cls-4{stroke-miterlimit:10;}.cls-3,.cls-6{fill:none;}.cls-4{fill:#fff;}.cls-5{font-size:14.11px;font-family:Jalnan;}</style></defs><g id="Layer_2" data-name="Layer 2"><g id="레이어_1" data-name="레이어 1"><path class="cls-1" d="M44,1.59,1.6,34.8a2.44,2.44,0,0,0,1.5,4.37H87.94a2.44,2.44,0,0,0,1.51-4.37L47,1.59A2.45,2.45,0,0,0,44,1.59Z"/><rect class="cls-2" x="0.5" y="34.62" width="90.05" height="60.75" rx="2.95"/><path class="cls-3" d="M90.55,39,47.07,72.25a2.54,2.54,0,0,1-3.09,0L.5,39"/><path class="cls-4" d="M13.38,48a1.79,1.79,0,0,0,.7,1.41L44.69,72.77s.34.66,1.71-.16S72.55,52.8,77.05,49.35a1.79,1.79,0,0,0,.7-1.41V20.67A1.78,1.78,0,0,0,76,18.89H15.16a1.78,1.78,0,0,0-1.78,1.78Z"/><text class="cls-5" transform="translate(24.78 41.92)">Hello!</text><path d="M22.42,48.58c2-2.41,5.45-.43,7.82.18a6.88,6.88,0,0,0,4-.09,12.79,12.79,0,0,1,4.7-.78c1.67.08,3.27.61,4.92.82a9.67,9.67,0,0,0,4.55-.54,17.39,17.39,0,0,1,4.72-1,14.42,14.42,0,0,1,4.76.55,17.46,17.46,0,0,0,2.52.78,4,4,0,0,0,2.24-.5,12.35,12.35,0,0,1,5.28-.88.5.5,0,0,0,0-1,14.6,14.6,0,0,0-4.7.55,16.41,16.41,0,0,1-2,.81,5.17,5.17,0,0,1-2.64-.6,15.54,15.54,0,0,0-9.35,0,12,12,0,0,1-5,.92c-1.66-.18-3.27-.72-4.94-.85a12.08,12.08,0,0,0-4.7.59,7.56,7.56,0,0,1-2.23.53,7.12,7.12,0,0,1-2.1-.31c-2.67-.75-6.28-2.54-8.51.15-.4.5.3,1.21.71.71Z"/><path d="M23.21,54.85a18.37,18.37,0,0,0,4.54.71,29.16,29.16,0,0,0,4.15-.77,11,11,0,0,1,4.37.55,10.14,10.14,0,0,0,3.91.31,31,31,0,0,1,4-.73,4.1,4.1,0,0,1,1.91.45,4.46,4.46,0,0,0,1.8.6,5.26,5.26,0,0,0,1.91-.47,8.38,8.38,0,0,1,4.31-.57c.73.09,1.43.33,2.16.4A6.46,6.46,0,0,0,58.55,55,7.64,7.64,0,0,1,61,54.85c1.49.11,3,.42,4.44-.17.58-.24.33-1.21-.27-1a8.16,8.16,0,0,1-4,.16,9.18,9.18,0,0,0-1.89,0c-.74.1-1.45.38-2.2.47A6.73,6.73,0,0,1,55,54.06a9.84,9.84,0,0,0-2-.2,12.05,12.05,0,0,0-3.92.87,2.45,2.45,0,0,1-2,0,7.41,7.41,0,0,0-1.85-.7,9.7,9.7,0,0,0-3.78.4,9.22,9.22,0,0,1-4.21.13,28.66,28.66,0,0,0-3.88-.78c-1.59-.12-3,.51-4.54.74a13.78,13.78,0,0,1-5.29-.6.5.5,0,0,0-.26,1Z"/><path d="M31.51,62.54c1.46-1.16,3.61.1,5.18.29,1.88.23,3.63-.83,5.5-.64.92.09,1.71.67,2.62.8a8.67,8.67,0,0,0,2.69-.14,12.9,12.9,0,0,1,3-.14,6.07,6.07,0,0,0,2.8-.4A6.35,6.35,0,0,1,56.68,62c1.1.16,2.18.43,3.29.53.64,0,.63-1,0-1-2-.18-3.95-1-5.94-.47a11.8,11.8,0,0,0-1.37.49,4.45,4.45,0,0,1-1.66.23,16.48,16.48,0,0,0-3,0,9.91,9.91,0,0,1-3.16.23,27.33,27.33,0,0,0-2.67-.8c-2-.18-3.82,1-5.8.58s-3.86-1.31-5.59.06c-.5.4.21,1.1.71.71Z"/><rect class="cls-6" x="0.32" width="90" height="95"/></g></g></svg>