<svg xmlns="http://www.w3.org/2000/svg" viewBox="0 0 242.04 242.1"><defs><style>.cls-1{fill:#f8f9ef;}.cls-2{fill:#dd5722;}.cls-3{fill:#f4f6eb;}.cls-3,.cls-4,.cls-5,.cls-6{stroke:#dd5722;stroke-miterlimit:10;stroke-width:2px;}.cls-4,.cls-5{fill:none;}.cls-5{stroke-linecap:round;}.cls-6{fill:#fff;}</style></defs><g id="Layer_2" data-name="Layer 2"><g id="레이어_1" data-name="레이어 1"><circle class="cls-1" cx="121.02" cy="121.02" r="121.02"/><path class="cls-2" d="M114,188.83s-1.47,22,1.15,35.51,3.6,17.76,3.6,17.76l16.92-.58s-4.95-16.89-5.39-28.35,0-28.07,0-28.07Z"/><ellipse class="cls-3" cx="101.81" cy="46.01" rx="22.43" ry="30.13" transform="translate(-8.25 26.78) rotate(-14.41)"/><ellipse class="cls-3" cx="66.88" cy="65.67" rx="22.43" ry="30.13" transform="translate(-26.85 65.56) rotate(-44.41)"/><ellipse class="cls-3" cx="46.46" cy="100.15" rx="22.43" ry="30.13" transform="translate(-62.49 117.98) rotate(-74.41)"/><ellipse class="cls-3" cx="46.01" cy="140.23" rx="30.13" ry="22.43" transform="translate(-33.45 15.86) rotate(-14.41)"/><ellipse class="cls-3" cx="65.67" cy="175.16" rx="30.13" ry="22.43" transform="translate(-103.82 95.99) rotate(-44.41)"/><ellipse class="cls-3" cx="100.15" cy="195.58" rx="30.13" ry="22.43" transform="translate(-115.15 239.49) rotate(-74.41)"/><ellipse class="cls-3" cx="140.23" cy="196.03" rx="22.43" ry="30.13" transform="translate(-44.37 41.06) rotate(-14.41)"/><ellipse class="cls-3" cx="175.16" cy="176.38" rx="22.43" ry="30.13" transform="translate(-73.39 172.96) rotate(-44.41)"/><ellipse class="cls-3" cx="195.58" cy="141.89" rx="22.43" ry="30.13" transform="translate(6.35 292.15) rotate(-74.41)"/><ellipse class="cls-3" cx="196.03" cy="101.81" rx="30.13" ry="22.43" transform="translate(-19.17 51.99) rotate(-14.41)"/><ellipse class="cls-3" cx="176.38" cy="66.88" rx="30.13" ry="22.43" transform="translate(3.58 142.53) rotate(-44.41)"/><ellipse class="cls-3" cx="141.89" cy="46.46" rx="30.13" ry="22.43" transform="translate(59.01 170.64) rotate(-74.41)"/><circle class="cls-3" cx="121.02" cy="121.02" r="74.45"/><line class="cls-4" x1="94.26" y1="80.1" x2="94.26" y2="88.32"/><line class="cls-4" x1="84.34" y1="82.5" x2="88.45" y2="90.04"/><line class="cls-4" x1="104.19" y1="82.5" x2="100.08" y2="90.04"/><path class="cls-5" d="M110.47,153.4s2.31,6.58,10.89,6.58"/><path class="cls-5" d="M132.26,153.4S130,160,121.36,160"/><path class="cls-5" d="M104.94,151.14s2.12,3.68,5.54,2.22,2-5.43,2-5.43"/><path class="cls-5" d="M137.44,151.14s-2.11,3.68-5.53,2.22-2-5.43-2-5.43"/><path class="cls-6" d="M94.26,88.36c-9.43,0-17.07,13.83-17.07,30.89,0,9.1,2.17,17.28,5.63,22.93a22.89,22.89,0,0,1,23-.14c3.41-5.65,5.55-13.76,5.55-22.79C111.34,102.19,103.7,88.36,94.26,88.36Z"/><path class="cls-4" d="M79.49,145.08c3-3.62,8.55-6.06,14.92-6.06s12,2.44,14.93,6.06"/><path class="cls-2" d="M101.14,96c-4.58,0-8.46,7.23-9.73,17.16C94.85,114,99,115.85,99,118s-4.48,4.06-8,4.94c.31,6.52,1.71,12.25,3.75,16.14a21.72,21.72,0,0,1,10.79,2.89c3.4-3.92,5.74-12.2,5.74-21.78C111.32,106.78,106.76,96,101.14,96Z"/><path class="cls-4" d="M99.26,118c0-2.1-3.91-3.92-7.13-4.84a60.71,60.71,0,0,0-.41,7c0,.93,0,1.85.07,2.75C95.06,122,99.26,120.13,99.26,118Z"/><line class="cls-4" x1="148.66" y1="80.1" x2="148.66" y2="88.32"/><line class="cls-4" x1="138.74" y1="82.5" x2="142.84" y2="90.04"/><line class="cls-4" x1="158.58" y1="82.5" x2="154.47" y2="90.04"/><path class="cls-6" d="M148.66,88.36c-9.44,0-17.08,13.83-17.08,30.89,0,9.1,2.17,17.28,5.64,22.93a22.87,22.87,0,0,1,23-.14c3.41-5.65,5.56-13.76,5.56-22.79C165.74,102.19,158.09,88.36,148.66,88.36Z"/><path class="cls-4" d="M133.88,145.08c3-3.62,8.55-6.06,14.93-6.06s11.94,2.44,14.92,6.06"/><path class="cls-2" d="M155.54,96c-4.59,0-8.47,7.23-9.74,17.16,3.45.92,7.63,2.74,7.63,4.84s-4.49,4.06-8,4.94c.31,6.52,1.71,12.25,3.75,16.14A21.69,21.69,0,0,1,160,141.92c3.4-3.92,5.74-12.2,5.74-21.78C165.71,106.78,161.15,96,155.54,96Z"/><path class="cls-4" d="M153.65,118c0-2.1-3.74-3.92-6.82-4.84a60.82,60.82,0,0,0-.39,7c0,.93,0,1.85.06,2.75C149.64,122,153.65,120.13,153.65,118Z"/><path class="cls-5" d="M115.51,161.88a13.25,13.25,0,0,0,6.17,1.2C125.4,163,127,162,127,162"/></g></g></svg>