<svg xmlns="http://www.w3.org/2000/svg" viewBox="0 0 90 95.22"><defs><style>.cls-1,.cls-2{fill:#fff;stroke:#000;stroke-linecap:round;stroke-linejoin:round;}.cls-1{stroke-width:3px;}.cls-2{stroke-width:2px;}.cls-3{fill:none;}</style></defs><g id="Layer_2" data-name="Layer 2"><g id="레이어_1" data-name="레이어 1"><path class="cls-1" d="M59.39,83.33a7.58,7.58,0,0,0,.5-2c.27-2.32-1.68-6,2-6,4.06,0,8,2.7,12.05,3.13,6.93.75,13.41-5.31,12.56-12.41-.9-7.58-9.11-12.57-16.25-12.18-2.15.12-3.93.12-4-2.35C66.18,46.09,72,40.28,75,36.11c3.39-4.68,7.57-9.19,9.63-14.67,3-8-3.67-16.43-12.17-16.06C65,5.7,61.86,14.1,59.12,19.76c-.36.74-3,5.3-2.43,6.22,0,0-4.55-7.14-11.69-7.79s-13,6.49-13,6.49C33.41,23,29.33,15,28.45,13.6,25.56,8.93,21.1,3.83,15.76,2A9.36,9.36,0,0,0,4,8C1.83,14.25,6.28,20.84,9.27,26c3.65,6.25,8.19,15.26,5.2,22.74C12.14,54.55,9.7,63,12.86,68.89c1.26,2.33,3,3.91,3.12,6.55.06,2-1.16,3.76-1.13,5.75,0,2.14,1.94,3.89,3.43,5.23a28.53,28.53,0,0,0,20.19,7.06c5.7-.23,12.18-1.5,16.85-5.09A12.61,12.61,0,0,0,59.39,83.33Z"/><path class="cls-2" d="M32,24.77a131,131,0,0,0-.62,14.41c.19,6.15,1.34,15.45,9.16,16.65a7.87,7.87,0,0,0,6.34-2.32c6.78-6.34,9.57-18.38,9.92-27.32"/><path class="cls-2" d="M40.19,55.86c-2.6,2.6-4.29,7.79-3,11s1.95,3.25,1.95,3.25"/><path class="cls-2" d="M14.16,70.92c3.76,4.43,11,4.17,16.28,3.75"/><path class="cls-2" d="M43.68,78.12a15.12,15.12,0,0,0,8.06,1.33c2.85-.32,5.12-1.84,7.84-2.52"/><rect class="cls-3" y="0.22" width="90" height="95"/></g></g></svg>