<svg xmlns="http://www.w3.org/2000/svg" viewBox="0 0 90 95.5"><defs><style>.cls-1,.cls-2{fill:#fff;stroke:#000;stroke-linecap:round;stroke-linejoin:round;}.cls-1{stroke-width:3px;}.cls-2{stroke-width:2px;}.cls-3{fill:none;}</style></defs><g id="Layer_2" data-name="Layer 2"><g id="레이어_1" data-name="레이어 1"><path class="cls-1" d="M10.71,31.5a31.26,31.26,0,0,0-1.66,5.11c-1,4-2.73,11.8.59,15.12l1.44,1.43a42.48,42.48,0,0,0-.56,10.44c.39,5.32,2.77,9.51,6.44,13.31C20,80,20,84.75,23,88.1,27.2,92.72,33.78,94,39.76,94c6.67,0,13.84-.85,20-3.38,3.08-1.26,7.29-3.31,8.62-6.63,1.43-3.59.72-7.17,2.87-8.61S80.72,71.73,82,62.48a21.67,21.67,0,0,0-2.11-13.37c-.71-1.34-2-2.48-2.48-3.88a9.08,9.08,0,0,1-.09-2.55c.07-5.65.76-11.64-1.13-17.09-1.74-5-6.41-6.7-11.07-8.38-5-1.83-9.72-1.61-13.88,2.09-1.05.93-2.17,2.12-3.66,1.75a20.5,20.5,0,0,1-2.83-1.53c-2.9-1.3-6.31-2.06-9.34-.76-5,2.15-7.17,6.45-8.6,7.16s-4.31-2.86-9.32-1.43C14.18,25.45,12.08,28.32,10.71,31.5Z"/><path class="cls-2" d="M47.63,21.62c-1.82,3.16-6.09,11.83-6.09,16.13s.36,9.68,1.07,10.39a6.72,6.72,0,0,0,1.44,1.1l2.55,1.35"/><path class="cls-2" d="M60.89,47.07c.75-.75,1.59-1.68,2.39-2.65a20.14,20.14,0,0,0,3.35-5.24"/><path class="cls-2" d="M63.76,44.54a6.2,6.2,0,0,1,1.1,3.26"/><path class="cls-2" d="M26.85,25.92a44,44,0,0,0-4.66,19.72c0,8.6,4.07,11.84,7,12a17.94,17.94,0,0,0,5.82-.76s4.69-2.29,6.12-4.44a12.65,12.65,0,0,0,1.81-4"/><path class="cls-2" d="M23.26,54.6c-2.87,1.43-8.6.71-10.75-.72s-2.33-1.61-2.33-1.61"/><path class="cls-2" d="M79.17,48.14c-3.6-1.08-12.9-.71-24.37.72s-16.39,4.77-17.2,12.9c-.72,7.17,9.75,9.91,15.77,7.17,7.88-3.58,14.33,2.15,14.33,2.15"/><path class="cls-2" d="M19,79c5,1.43,14.34.71,14.34.71"/><path class="cls-2" d="M43.33,76.1S47.71,80.76,57,79.86,70.21,76.1,70.21,76.1"/><rect class="cls-3" width="90" height="95"/></g></g></svg>