<svg xmlns="http://www.w3.org/2000/svg" viewBox="0 0 29.53 28.24"><defs><style>.cls-1{fill:#fbbc05;stroke:#000;stroke-miterlimit:10;}</style></defs><g id="Layer_2" data-name="Layer 2"><g id="Layer_2-2" data-name="Layer 2"><path class="cls-1" d="M15.73,1.1l3.58,7.25a1.07,1.07,0,0,0,.81.58l8,1.17a1.07,1.07,0,0,1,.6,1.83l-5.79,5.64a1.08,1.08,0,0,0-.31.95l1.37,8a1.08,1.08,0,0,1-1.56,1.13l-7.15-3.76a1,1,0,0,0-1,0L7.11,27.62a1.07,1.07,0,0,1-1.55-1.13l1.36-8a1.06,1.06,0,0,0-.31-.95L.83,11.93a1.07,1.07,0,0,1,.59-1.83l8-1.17a1.09,1.09,0,0,0,.81-.58L13.8,1.1A1.08,1.08,0,0,1,15.73,1.1Z"/></g></g></svg>