<svg xmlns="http://www.w3.org/2000/svg" viewBox="0 0 1921 1079.5"><defs><style>.cls-1,.cls-2{fill:#fff;}.cls-2,.cls-4,.cls-5,.cls-6,.cls-7{stroke:#000;}.cls-2,.cls-3,.cls-4,.cls-5,.cls-6,.cls-7{stroke-miterlimit:10;}.cls-3,.cls-4,.cls-5,.cls-7{fill:none;}.cls-3{stroke:#939393;}.cls-3,.cls-4,.cls-5{stroke-linecap:round;}.cls-3,.cls-4{stroke-width:3px;}.cls-6{fill:#fbbc05;}.cls-8{font-size:15px;font-family:TheJamsil2Light;}</style></defs><g id="Layer_2" data-name="Layer 2"><g id="Layer_2-2" data-name="Layer 2"><rect class="cls-1" x="0.5" width="1919.5" height="1079.5"/><path class="cls-2" d="M1908.87,59.82H507V34.24c0-12-8-21.74-17.92-21.74H314.91C305,12.5,297,22.23,297,34.24V59.82H12.13C5.71,59.82.5,66.14.5,73.93V166h1920V73.93C1920.5,66.14,1915.29,59.82,1908.87,59.82Z"/><line class="cls-3" x1="52" y1="96.5" x2="36" y2="114.5"/><line class="cls-3" x1="52" y1="132.5" x2="36" y2="114.5"/><line class="cls-3" x1="36" y1="114.5" x2="78" y2="114.5"/><line class="cls-3" x1="149" y1="96.5" x2="165" y2="114.5"/><line class="cls-3" x1="149" y1="132.5" x2="165" y2="114.5"/><line class="cls-3" x1="165" y1="114.5" x2="123" y2="114.5"/><path class="cls-4" d="M261.79,125.1a20.33,20.33,0,1,1-7.64-24.1"/><line class="cls-4" x1="253.18" y1="90.8" x2="254.62" y2="101.35"/><line class="cls-4" x1="243.93" y1="104.24" x2="254.21" y2="101.44"/><rect class="cls-5" x="332" y="89" width="1391" height="51" rx="25.5"/><rect class="cls-5" x="401" y="688.5" width="1119" height="77" rx="38.5"/><circle cx="1860.5" cy="97" r="4.5"/><circle cx="1861" cy="114.5" r="4.5"/><circle cx="1861.5" cy="132" r="4.5"/><path class="cls-6" d="M1683,100.76l3.58,7.25a1.09,1.09,0,0,0,.81.58l8,1.17a1.07,1.07,0,0,1,.59,1.83l-5.79,5.64a1.08,1.08,0,0,0-.3,1l1.36,8a1.08,1.08,0,0,1-1.56,1.13l-7.15-3.76a1,1,0,0,0-1,0l-7.15,3.76a1.08,1.08,0,0,1-1.56-1.13l1.36-8a1.08,1.08,0,0,0-.3-1l-5.79-5.64a1.07,1.07,0,0,1,.59-1.83l8-1.17a1.09,1.09,0,0,0,.81-.58l3.58-7.25A1.07,1.07,0,0,1,1683,100.76Z"/><circle class="cls-7" cx="448.47" cy="725.97" r="16.47"/><line class="cls-7" x1="460.48" y1="737.09" x2="473.39" y2="750"/><text class="cls-8" transform="translate(353.29 42.03)">Popup Design</text></g></g></svg>