<?xml version="1.0" encoding="utf-8"?>
<!-- Generator: Adobe Illustrator 26.0.3, SVG Export Plug-In . SVG Version: 6.00 Build 0)  -->
<svg version="1.1" id="레이어_1" xmlns="http://www.w3.org/2000/svg" xmlns:xlink="http://www.w3.org/1999/xlink" x="0px"
	 y="0px" viewBox="0 0 1326 305" style="enable-background:new 0 0 1326 305;" xml:space="preserve">
<style type="text/css">
	.st0{fill:#4285F4;stroke:#000000;stroke-miterlimit:10;}
	.st1{fill:#EA4335;stroke:#000000;stroke-miterlimit:10;}
	.st2{fill:#FBBC05;stroke:#000000;stroke-miterlimit:10;}
	.st3{fill:#34A853;stroke:#000000;stroke-miterlimit:10;}
</style>
<g id="Layer_2">
	<g id="Layer_2-2">
		<path class="st0" d="M38.5,170.6v44h-38V95.1C0.4,90.5,0.9,86,1.9,81.6c0.8-3.4,2.4-6.5,4.7-9c2.4-2.5,5.5-4.2,8.9-5.1
			c4.5-1.2,9.2-1.7,13.9-1.6h32.1c7.5-0.1,15,1,22.2,3.1c6.4,1.8,12.4,5,17.6,9.2c5,4.3,9,9.7,11.5,15.8c2.8,6.4,4.2,14,4.2,22.7
			v3.1c0,8.7-1.4,16.3-4.2,22.7c-2.6,6.1-6.5,11.5-11.5,15.8c-5.2,4.2-11.1,7.4-17.5,9.2c-7.2,2.1-14.7,3.1-22.2,3L38.5,170.6z
			 M38.5,138.5h21c2.8,0.1,5.6-0.5,8.2-1.6c2.3-1,4.4-2.5,6.1-4.3c1.7-1.8,2.9-4,3.8-6.3c0.9-2.4,1.3-4.9,1.3-7.4v-1.3
			c0-2.5-0.4-5-1.3-7.4c-0.8-2.3-2.1-4.4-3.8-6.3c-1.7-1.9-3.8-3.4-6.1-4.4c-2.6-1.1-5.4-1.6-8.2-1.6H43.9c-2.1,0-3.5,0.3-4.2,1
			s-1.1,2.1-1.1,4.3L38.5,138.5z"/>
		<path class="st1" d="M128.3,149.9c0-10,1.6-18.2,4.8-24.8c2.9-6.1,7.2-11.5,12.6-15.7c5.1-3.9,11-6.7,17.3-8.3
			c12.4-3.2,25.3-3.2,37.7,0c6.3,1.6,12.1,4.4,17.3,8.3c5.4,4.2,9.7,9.6,12.7,15.7c3.3,6.5,4.9,14.8,4.9,24.8v17
			c0,10-1.6,18.3-4.9,24.8c-3,6.1-7.3,11.5-12.7,15.7c-5.1,3.9-11,6.8-17.3,8.3c-12.3,3.2-25.2,3.2-37.5,0
			c-6.3-1.6-12.1-4.4-17.3-8.3c-5.4-4.2-9.7-9.6-12.6-15.7c-3.3-6.5-4.9-14.8-4.9-24.8V149.9z M198.3,148.3c0.1-2.9-0.4-5.7-1.5-8.4
			c-0.9-2.1-2.2-4-3.8-5.6c-1.5-1.4-3.3-2.5-5.2-3.2c-3.8-1.3-8-1.3-11.8,0c-2,0.7-3.8,1.8-5.3,3.2c-1.6,1.6-2.9,3.5-3.8,5.6
			c-1.1,2.7-1.6,5.5-1.5,8.4v20.3c-0.1,2.9,0.4,5.7,1.5,8.4c0.9,2.1,2.2,4,3.8,5.6c1.5,1.4,3.3,2.6,5.3,3.2c3.8,1.3,8,1.3,11.8,0
			c2-0.7,3.8-1.8,5.3-3.2c1.6-1.6,2.9-3.5,3.8-5.6c1.1-2.7,1.6-5.5,1.5-8.4L198.3,148.3z"/>
		<path class="st2" d="M252.4,247.1V117.6c-0.1-2.7,0.5-5.5,1.6-8c1-2.2,2.4-4.1,4.2-5.7c1.7-1.5,3.7-2.7,5.9-3.5
			c5.6-2,11.9-1.5,17.1,1.4c3.1,1.7,5.6,4.4,7.1,7.6c3.6-3.3,7.8-5.9,12.5-7.6c4.5-1.7,9.3-2.6,14.1-2.6c5.8,0,11.7,0.8,17.3,2.5
			c5.4,1.6,10.3,4.5,14.4,8.4c4.4,4.4,7.8,9.8,9.8,15.7c2.4,6.5,3.6,14.7,3.6,24.4v16.6c0,9.7-1.2,17.9-3.6,24.4
			c-2,5.9-5.4,11.3-9.8,15.7c-4.1,3.9-9,6.8-14.4,8.4c-5.6,1.7-11.4,2.5-17.3,2.5c-4.5,0-9-0.6-13.3-1.9c-4.1-1.3-8.1-3.2-11.6-5.6
			v36.9L252.4,247.1z M321.9,147.5c0.1-2.7-0.5-5.4-1.6-7.8c-0.9-2-2.3-3.8-4-5.3c-1.5-1.3-3.3-2.3-5.2-2.9
			c-1.7-0.5-3.4-0.8-5.2-0.8c-1.8,0-3.6,0.3-5.3,0.8c-1.9,0.6-3.7,1.5-5.3,2.9c-1.7,1.5-3,3.2-4,5.3c-1.1,2.5-1.6,5.1-1.6,7.8v22.7
			c0,2.6,0.7,5.2,1.9,7.5c1,1.9,2.4,3.5,4,4.9c1.5,1.2,3.2,2.1,5.1,2.7c3.4,1.1,7,1.1,10.3,0c1.9-0.6,3.7-1.6,5.2-2.9
			c1.7-1.4,3-3.2,4-5.2c1.1-2.5,1.7-5.2,1.6-7.9L321.9,147.5z"/>
		<path class="st0" d="M418.5,217.7c-5.6,0-11.2-0.8-16.5-2.4c-5.1-1.6-9.6-4.4-13.3-8.2c-3.8-3.9-6.8-9.1-9-15.6
			c-2.2-6.5-3.3-14.7-3.3-24.4v-49.5c0-6.4,1.9-11.1,5.6-14c7.9-5.9,18.8-5.9,26.8,0c3.8,3,5.6,7.6,5.6,14v51.7
			c-0.1,2.7,0.4,5.4,1.4,7.9c0.8,1.9,2,3.7,3.5,5.2c1.3,1.3,2.9,2.3,4.7,2.9c1.6,0.5,3.3,0.8,5,0.8c1.6,0,3.3-0.3,4.8-0.8
			c1.7-0.6,3.3-1.5,4.7-2.7c1.5-1.4,2.7-3,3.6-4.9c1.1-2.4,1.6-4.9,1.7-7.5v-52.8c0-6.3,1.8-10.9,5.5-13.8c3.7-3,8.4-4.6,13.2-4.4
			c4.8-0.1,9.5,1.5,13.3,4.4c3.7,3,5.5,7.6,5.5,13.8v97.2h-29.3l-2-12c-3.5,4.7-8,8.5-13.3,11.1C431,216.4,424.7,217.8,418.5,217.7z
			"/>
		<path class="st3" d="M499.7,247.1V117.6c-0.1-2.7,0.5-5.5,1.6-8c1-2.2,2.4-4.1,4.2-5.7c1.7-1.5,3.7-2.7,5.9-3.5
			c5.6-2,11.9-1.5,17.1,1.4c3.1,1.7,5.6,4.4,7.1,7.6c3.6-3.3,7.8-5.9,12.5-7.6c4.5-1.7,9.3-2.6,14.1-2.6c5.8,0,11.7,0.8,17.3,2.5
			c5.4,1.6,10.4,4.5,14.4,8.4c4.4,4.4,7.8,9.8,9.8,15.7c2.4,6.5,3.6,14.7,3.6,24.4v16.6c0,9.7-1.2,17.9-3.6,24.4
			c-2,5.9-5.4,11.3-9.8,15.7c-4.1,3.9-9,6.8-14.4,8.4c-5.6,1.7-11.4,2.5-17.3,2.5c-4.5,0-9-0.6-13.3-1.9c-4.1-1.3-8.1-3.2-11.6-5.6
			V247L499.7,247.1z M569.2,147.5c0.1-2.7-0.5-5.4-1.6-7.8c-1-2-2.3-3.8-4-5.3c-1.5-1.3-3.3-2.3-5.2-2.9c-1.7-0.5-3.4-0.8-5.2-0.8
			c-1.8,0-3.6,0.3-5.3,0.8c-1.9,0.6-3.7,1.5-5.3,2.9c-1.7,1.5-3.1,3.2-4,5.3c-1.1,2.5-1.6,5.1-1.6,7.8v22.7c0,2.6,0.7,5.2,1.8,7.5
			c1,1.9,2.4,3.6,4,4.9c1.5,1.2,3.2,2.1,5.1,2.7c3.4,1.1,7,1.1,10.3,0c1.9-0.6,3.7-1.6,5.2-2.9c1.7-1.4,3-3.2,4-5.2
			c1.1-2.5,1.7-5.2,1.6-7.9L569.2,147.5z"/>
		<path class="st0" d="M733,65.9c8,0,16,1.2,23.7,3.4c7.7,2.3,14.9,6.2,21,11.5c6.6,5.8,11.7,13,15.1,21.1
			c3.8,8.8,5.7,19.5,5.7,32.3v12c0,12.8-1.9,23.6-5.7,32.3c-3.3,8.1-8.5,15.3-15,21.1c-6.1,5.3-13.3,9.2-21,11.4
			c-7.7,2.3-15.7,3.4-23.8,3.4h-27.5c-4.7,0.1-9.3-0.4-13.8-1.6c-3.4-0.9-6.4-2.6-8.9-5.1c-2.3-2.5-4-5.6-4.7-9
			c-1-4.4-1.5-8.9-1.4-13.5V95.1c-0.1-4.5,0.4-9.1,1.3-13.5c0.8-3.4,2.4-6.5,4.7-9c2.4-2.5,5.5-4.2,8.9-5.1
			c4.5-1.1,9.2-1.7,13.8-1.6L733,65.9z M760.9,131.3c0-10.8-2.6-19.1-7.9-24.8s-12.3-8.6-21.1-8.6h-12.2c-2.1,0-3.5,0.3-4.2,1
			s-1.1,2.1-1.1,4.3v74.1c0,2.2,0.4,3.7,1.1,4.3s2.2,1,4.2,1h12.2c8.7,0,15.8-2.9,21.1-8.6c5.3-5.7,7.9-14,7.9-24.8L760.9,131.3z"/>
		<path class="st1" d="M870.4,217.7c-6.8,0-13.6-0.9-20.1-2.6c-6.6-1.6-12.8-4.5-18.4-8.5c-5.6-4.1-10.2-9.5-13.3-15.8
			c-3.4-6.6-5.1-14.7-5.1-24.3v-16.3c0-9.9,1.6-18,4.9-24.6c2.9-6.1,7.2-11.5,12.6-15.7c5-3.9,10.8-6.8,17-8.4
			c5.9-1.6,12-2.5,18.2-2.5c6.3,0,12.6,0.8,18.7,2.3c6.1,1.5,11.7,4.5,16.3,8.8c4.8,4.3,8.6,10.3,11.5,18c2.9,7.7,4.3,17.6,4.3,29.8
			c0,1.6-0.1,3.5-0.3,5.7c-0.2,2.2-0.4,4.1-0.6,5.7h-66.2v0.2c-0.1,2.8,0.6,5.5,2,7.9c1.3,2.1,3.1,3.8,5.2,5.2
			c2.1,1.4,4.4,2.3,6.8,2.9c2.3,0.5,4.6,0.8,7,0.8c3.5,0.1,7-0.1,10.5-0.6c2.5-0.4,5-1,7.4-1.8c1.3-0.5,2.7-1,4.2-1.6
			c1.5-0.6,3-1,4.5-1.2c3-0.4,6,0,8.8,1.1c2.7,1.1,4.7,3.2,5.8,5.9c2,4.6,2,8.7,0.1,12.5c-2.2,4-5.5,7.3-9.5,9.5
			c-1.8,1-3.7,1.9-5.6,2.6c-2.5,0.9-5.1,1.7-7.8,2.4c-3,0.8-6.1,1.3-9.2,1.8C877,217.5,873.7,217.7,870.4,217.7z M866.3,129.1
			c-2,0-4,0.3-6,0.8c-1.9,0.5-3.6,1.5-5.1,2.8c-1.6,1.4-2.8,3.1-3.7,5c-1.1,2.4-1.6,5-1.5,7.7h31.2c0.2-2.6-0.2-5.2-1-7.7
			c-0.7-1.9-1.8-3.6-3.2-5c-1.4-1.3-3.1-2.3-4.9-2.8C870.3,129.3,868.3,129.1,866.3,129.1z"/>
		<path class="st2" d="M969.2,134.4c-0.2,2.2,1.1,3.9,4,5c4.8,1.6,9.7,2.7,14.7,3.5l3.6,0.7l3.4,0.7c11.1,2.8,19.2,7.7,24.4,14.5
			s7.1,15.8,5.7,27.1c-0.6,5.1-2.4,9.9-5.3,14.1c-2.8,4.1-6.5,7.4-10.8,9.9c-4.7,2.7-9.9,4.7-15.2,5.8c-6,1.3-12.1,2-18.2,1.9
			c-3.2,0-6.5-0.2-9.9-0.5c-3.4-0.3-6.7-0.8-10.1-1.6c-3.3-0.7-6.5-1.8-9.6-3.1c-2.9-1.2-5.7-2.9-8.1-4.9c-3.1-2.6-5.4-6.1-6.5-10.1
			c-1.2-4-0.5-8,2.1-11.9c1.2-1.9,3-3.3,5.1-4.2c2.1-0.9,4.4-1.4,6.7-1.5c2.4-0.2,4.8,0.2,7,1.3c1.7,1,3.4,2,5,3
			c2.6,1.5,5.5,2.5,8.5,2.9c3.6,0.7,7.2,1.1,10.9,1.1c3.6,0,6.3-0.6,8.2-1.9c1.7-0.9,2.9-2.5,3.2-4.4c0.3-2.2-1.6-4-5.6-5.3
			c-5.5-1.7-11.1-3.1-16.7-4.2c-1.3-0.2-2.7-0.5-4-0.8s-2.5-0.7-3.6-1c-7.3-2.2-12.9-5.2-17-9c-3.8-3.4-6.7-7.7-8.5-12.5
			c-1.6-4.6-2.1-9.4-1.6-14.2c0.5-4.8,1.7-9.5,3.7-13.8c1.8-3.8,4.3-7.1,7.3-10c3-2.9,6.5-5.2,10.3-6.9c4-1.8,8.2-3.2,12.5-4
			c4.5-0.9,9.1-1.3,13.7-1.3c6.4-0.1,12.8,0.6,19,2c4.4,1.1,8.7,2.7,12.7,4.9c3.7,2,6.9,5,9.1,8.6c2.2,3.5,2.7,7.8,1.5,11.7
			c-1.1,3.6-3,6-5.5,7.4c-2.7,1.4-5.8,2.1-8.9,2c-1.4,0-2.8-0.2-4.2-0.6c-1.3-0.3-2.5-0.8-3.6-1.6c-1.3-0.8-2.6-1.5-4.1-1.9
			c-1.6-0.6-3.3-1.1-5.1-1.6c-1.8-0.5-3.6-0.9-5.4-1.1c-1.7-0.2-3.3-0.4-5-0.4c-2.5-0.1-4.9,0.5-7,1.8
			C970.5,131.1,969.4,132.7,969.2,134.4z"/>
		<path class="st0" d="M1039.2,75.5c0-6,1.9-10.3,5.7-13c8.2-5.3,18.8-5.3,27,0c3.8,2.7,5.7,7,5.7,13c0.1,2.7-0.5,5.4-1.6,7.8
			c-1,2.1-2.4,3.9-4.2,5.3c-1.8,1.4-3.9,2.4-6.1,3c-4.9,1.2-9.9,1.2-14.8,0c-2.2-0.6-4.3-1.6-6.1-3c-1.8-1.4-3.2-3.2-4.2-5.3
			C1039.7,80.9,1039.1,78.2,1039.2,75.5z M1039.4,118.9c0-6.4,1.9-11.1,5.6-14c7.9-5.9,18.8-5.9,26.8,0c3.8,3,5.6,7.6,5.6,14v95.7
			h-38L1039.4,118.9z"/>
		<path class="st3" d="M1202.1,200.7c0,5.3-0.7,10.6-2.1,15.7c-1.5,5.6-4.4,10.7-8.3,14.9c-4.1,4.5-10,8.3-17.6,11.4
			s-17.7,4.9-30.1,5.4c-2.1,0.1-4.1,0.1-6.2-0.1c-2.4-0.2-4.9-0.5-7.5-0.9c-2.5-0.4-5-1-7.4-1.7c-2-0.5-3.9-1.3-5.7-2.3
			c-2.9-1.7-5.1-4.4-6-7.7c-1.2-3.3-1.1-6.8,0.1-10.1c1.1-2.9,3.1-5.4,5.7-7c2.6-1.7,5.8-2.4,8.9-1.9c2.7,0.4,5.5,0.7,8.5,1.1
			c3.2,0.4,6.4,0.6,9.6,0.6c3.4,0.1,6.9-0.4,10.2-1.4c2.6-0.8,4.9-2.1,7-3.8c3.4-2.8,5.4-7,5.3-11.4v-3.3c-3.3,3.3-7.2,5.8-11.4,7.5
			c-4.8,1.9-10,2.8-15.1,2.7c-5.8,0-11.7-0.8-17.3-2.4c-5.3-1.6-10.1-4.4-14.1-8.2c-4.4-4.4-7.6-9.7-9.6-15.5
			c-2.3-6.5-3.5-14.5-3.5-24.1v-8.1c0-9.7,1.2-17.9,3.5-24.4c1.9-5.9,5.2-11.3,9.6-15.7c4-3.9,8.9-6.8,14.2-8.4
			c5.6-1.7,11.5-2.5,17.4-2.5c4.8,0,9.5,0.9,14,2.6c4.6,1.7,8.8,4.3,12.4,7.8c1.3-3.3,3.8-6,6.9-7.8c3.1-1.7,6.7-2.6,10.2-2.6
			c4.7-0.1,9.3,1.6,12.9,4.6c3.7,3.1,5.5,7.7,5.5,13.8L1202.1,200.7z M1133.4,161.6c-0.1,2.7,0.4,5.4,1.6,7.9c0.9,2,2.3,3.7,3.9,5.2
			c1.5,1.3,3.2,2.3,5.1,2.9c1.7,0.5,3.4,0.8,5.2,0.8c1.7,0,3.4-0.3,5.1-0.8c1.8-0.6,3.5-1.5,5-2.7c1.6-1.3,3-3,4-4.9
			c1.2-2.3,1.8-4.9,1.8-7.5v-15.9c0-2.6-0.7-5.2-1.8-7.5c-1-1.9-2.4-3.5-4-4.9c-1.5-1.2-3.2-2.1-5-2.7c-1.6-0.5-3.4-0.8-5.1-0.8
			c-1.8,0-3.5,0.3-5.2,0.8c-1.9,0.6-3.6,1.5-5.1,2.9c-1.6,1.5-2.9,3.3-3.9,5.3c-1.1,2.5-1.6,5.1-1.6,7.8V161.6z"/>
		<path class="st1" d="M1220.6,214.6v-97c-0.1-2.7,0.5-5.5,1.6-8c1-2.2,2.4-4.1,4.2-5.7c1.7-1.5,3.7-2.7,5.9-3.5
			c5.6-2,11.9-1.5,17.1,1.4c3.1,1.7,5.6,4.4,7.1,7.6c3.6-3.3,7.8-5.9,12.5-7.6c4.6-1.7,9.6-2.6,14.5-2.6c5.6,0,11.2,0.8,16.5,2.4
			c5.1,1.6,9.6,4.4,13.3,8.2c3.8,3.9,6.8,9.1,9,15.6c2.2,6.5,3.3,14.7,3.3,24.4v64.8h-38v-67c0.1-2.7-0.4-5.4-1.4-7.9
			c-0.8-2-2-3.8-3.5-5.3c-1.3-1.3-2.9-2.3-4.7-2.9c-3.2-1.1-6.8-1.1-10,0c-1.8,0.6-3.4,1.6-4.8,2.9c-1.6,1.5-2.8,3.3-3.6,5.3
			c-1,2.5-1.5,5.2-1.4,7.9v67.1L1220.6,214.6z"/>
	</g>
</g>
</svg>
