<svg xmlns="http://www.w3.org/2000/svg" viewBox="0 0 302 288.26"><defs><style>.cls-1{fill:#f36563;}.cls-2,.cls-5{fill:none;}.cls-2,.cls-3,.cls-4,.cls-5{stroke:#000;stroke-miterlimit:10;}.cls-3{fill:#fff;}.cls-5{stroke-width:2px;}</style></defs><g id="Layer_2" data-name="Layer 2"><g id="레이어_1" data-name="레이어 1"><path class="cls-1" d="M301.5,144.13c0,14.62-31.58,24.06-35.86,37.25-4.44,13.67,15.4,39.85,7.12,51.23s-39.45.66-50.94,9-10.63,41.23-24.3,45.67c-13.19,4.28-31.9-22.67-46.52-22.67s-33.33,26.95-46.52,22.67c-13.67-4.44-12.92-37.39-24.3-45.67s-42.58,2.47-50.94-9,11.56-37.56,7.12-51.23C32.08,168.19.5,158.75.5,144.13s31.58-24.06,35.86-37.25C40.8,93.21,21,67,29.24,55.66s39.45-.67,50.94-9S90.81,5.4,104.48,1c13.19-4.28,31.9,22.67,46.52,22.67S184.33-3.32,197.52,1c13.67,4.44,12.92,37.39,24.3,45.67s42.58-2.47,50.94,9-11.56,37.55-7.12,51.22C269.92,120.07,301.5,129.51,301.5,144.13Z"/><path class="cls-2" d="M301.5,144.13c0,14.62-31.58,24.06-35.86,37.25-4.44,13.67,15.4,39.85,7.12,51.23s-39.45.66-50.94,9-10.63,41.23-24.3,45.67c-13.19,4.28-31.9-22.67-46.52-22.67s-33.33,26.95-46.52,22.67c-13.67-4.44-12.92-37.39-24.3-45.67s-42.58,2.47-50.94-9,11.56-37.56,7.12-51.23C32.08,168.19.5,158.75.5,144.13s31.58-24.06,35.86-37.25C40.8,93.21,21,67,29.24,55.66s39.45-.67,50.94-9S90.81,5.4,104.48,1c13.19-4.28,31.9,22.67,46.52,22.67S184.33-3.32,197.52,1c13.67,4.44,12.92,37.39,24.3,45.67s42.58-2.47,50.94,9-11.56,37.55-7.12,51.22C269.92,120.07,301.5,129.51,301.5,144.13Z"/><ellipse class="cls-3" cx="118.85" cy="131.67" rx="22.66" ry="40.98"/><path class="cls-4" d="M116.71,134.45c0-2.44,5.54-4.56,10.11-5.63-1.69-11.53-6.83-19.92-12.91-19.92-7.46,0-13.5,12.58-13.5,28.09s6,28.09,13.5,28.09c6.93,0,12.64-10.89,13.4-24.9C122.66,139.16,116.71,137,116.71,134.45Z"/><path class="cls-3" d="M126.82,128.82c-4.57,1.07-10.11,3.19-10.11,5.63s6,4.71,10.6,5.73c.06-1,.09-2.11.09-3.19A57.86,57.86,0,0,0,126.82,128.82Z"/><line class="cls-5" x1="118.85" y1="79.74" x2="118.85" y2="90.64"/><line class="cls-5" x1="105.69" y1="82.92" x2="111.13" y2="92.93"/><line class="cls-5" x1="132.01" y1="82.92" x2="126.56" y2="92.93"/><ellipse class="cls-3" cx="189.11" cy="131.67" rx="22.66" ry="40.98"/><path class="cls-4" d="M187,134.45c0-2.44,5.54-4.56,10.11-5.63-1.69-11.53-6.83-19.92-12.91-19.92-7.46,0-13.5,12.58-13.5,28.09s6,28.09,13.5,28.09c6.93,0,12.64-10.89,13.4-24.9C192.92,139.16,187,137,187,134.45Z"/><path class="cls-3" d="M197.08,128.82C192.51,129.89,187,132,187,134.45s5.95,4.71,10.6,5.73c.05-1,.09-2.11.09-3.19A57.86,57.86,0,0,0,197.08,128.82Z"/><line class="cls-5" x1="189.11" y1="79.74" x2="189.11" y2="90.64"/><line class="cls-5" x1="175.95" y1="82.92" x2="181.39" y2="92.93"/><line class="cls-5" x1="202.27" y1="82.92" x2="196.82" y2="92.93"/><path class="cls-5" d="M100.72,166.55a15.68,15.68,0,0,1-2.31,12.21c-2.57,3.91-8,7.94-12.91,7.13"/><path class="cls-5" d="M97.72,179.28s21.38,19.34,57.53,19.34"/><path class="cls-5" d="M209.78,166.55a15.68,15.68,0,0,0,2.31,12.21c2.57,3.91,7.95,7.94,12.91,7.13"/><path class="cls-5" d="M212.78,179.28s-21.38,19.34-57.53,19.34"/><path d="M82.23,159.93a1.5,1.5,0,0,0,0-3,1.5,1.5,0,0,0,0,3Z"/><path d="M74.83,174.74h.26a1.14,1.14,0,0,0,.57-.13,1.21,1.21,0,0,0,.49-.31,1.24,1.24,0,0,0,.31-.48,1.29,1.29,0,0,0,.13-.58l-.06-.4a1.45,1.45,0,0,0-.38-.66l-.31-.24a1.5,1.5,0,0,0-.75-.2h-.26a1.06,1.06,0,0,0-.58.13,1.08,1.08,0,0,0-.48.31,1,1,0,0,0-.31.48,1.15,1.15,0,0,0-.13.58l0,.4a1.49,1.49,0,0,0,.39.66l.3.23a1.48,1.48,0,0,0,.76.21Z"/><path d="M61.55,166.82a1.5,1.5,0,0,0,0-3,1.5,1.5,0,0,0,0,3Z"/><path d="M217.3,158.91a1.5,1.5,0,0,0,0-3,1.5,1.5,0,0,0,0,3Z"/><path d="M228.28,173.72a1.5,1.5,0,0,0,0-3,1.5,1.5,0,0,0,0,3Z"/><path d="M245.13,161a1.5,1.5,0,0,0,0-3,1.5,1.5,0,0,0,0,3Z"/></g></g></svg>