<svg xmlns="http://www.w3.org/2000/svg" viewBox="0 0 90 95.36"><defs><style>.cls-1{fill:#229342;}.cls-2{fill:#fbc116;}.cls-3{fill:#e33b2e;}.cls-4{fill:#fff;}.cls-5,.cls-6{fill:none;}.cls-5{stroke:#000;stroke-miterlimit:10;}</style></defs><g id="Layer_2" data-name="Layer 2"><g id="레이어_1" data-name="레이어 1"><path class="cls-1" d="M5.87,55.85C5.87,77.63,24.18,95,46.86,95L11.1,36.58A38,38,0,0,0,5.87,55.85Z"/><polygon class="cls-1" points="32.3 71.19 10.82 36 46.57 94.71 63.55 66.58 32.3 71.19"/><path class="cls-2" d="M64.32,90.08A39.32,39.32,0,0,0,78.71,36.35L45.42,94.71C51.94,94.63,58.27,93.57,64.32,90.08Z"/><polygon class="cls-2" points="65.28 59.99 45.42 94.71 78.71 36.35 46.32 36.37 65.28 59.99"/><path class="cls-3" d="M64.77,22.26A39.34,39.34,0,0,0,11,36.66l67.87-.45A39.25,39.25,0,0,0,64.77,22.26Z"/><polygon class="cls-3" points="38.22 36.48 78.91 36.21 11.04 36.66 27.25 64.7 38.22 36.48"/><circle class="cls-4" cx="45.21" cy="55.67" r="21.79"/><circle class="cls-5" cx="45.13" cy="55.86" r="39"/><line class="cls-5" x1="45.03" y1="68.89" x2="45.03" y2="64.48"/><line class="cls-5" x1="55.13" y1="65.95" x2="53.14" y2="63.16"/><line class="cls-5" x1="36.17" y1="65.95" x2="38.15" y2="63.16"/><path class="cls-5" d="M45.47,64.05c-7,0-14.79-2.59-18.12-9.27"/><path class="cls-5" d="M45.47,64.05c7,0,14.79-2.59,18.11-9.27"/><rect class="cls-6" width="90" height="95"/></g></g></svg>