<svg xmlns="http://www.w3.org/2000/svg" viewBox="0 0 90 95"><defs><style>.cls-1{fill:#229342;}.cls-2{fill:#fbc116;}.cls-3{fill:#e33b2e;}.cls-4,.cls-6{fill:#fff;}.cls-5{fill:#1a73e8;}.cls-5,.cls-6,.cls-7{stroke:#000;stroke-miterlimit:10;}.cls-7,.cls-8{fill:none;}</style></defs><g id="Layer_2" data-name="Layer 2"><g id="레이어_1" data-name="레이어 1"><path class="cls-1" d="M5.87,55.42c0,21.78,18.31,39.15,41,39.15L11.1,36.15A38,38,0,0,0,5.87,55.42Z"/><polygon class="cls-1" points="32.3 70.76 10.82 35.57 46.57 94.28 63.55 66.15 32.3 70.76"/><path class="cls-2" d="M64.32,89.65A39.33,39.33,0,0,0,78.71,35.92L45.42,94.28C51.94,94.2,58.27,93.14,64.32,89.65Z"/><polygon class="cls-2" points="65.28 59.55 45.42 94.28 78.71 35.92 46.32 35.94 65.28 59.55"/><path class="cls-3" d="M64.77,21.83A39.33,39.33,0,0,0,11,36.23l67.87-.45A39.17,39.17,0,0,0,64.77,21.83Z"/><polygon class="cls-3" points="40.18 37.59 78.91 35.78 11.04 36.23 27.25 64.27 40.18 37.59"/><circle class="cls-4" cx="45.21" cy="55.23" r="21.79"/><circle class="cls-5" cx="45.21" cy="55.23" r="17.19"/><circle class="cls-6" cx="41.39" cy="49.96" r="5.47"/><circle class="cls-6" cx="50.89" cy="62.05" r="3.74"/><circle class="cls-7" cx="45.13" cy="55.43" r="39"/><line class="cls-7" x1="45.21" y1="34.07" x2="45.21" y2="38.48"/><line class="cls-7" x1="35.11" y1="37.01" x2="37.09" y2="39.8"/><line class="cls-7" x1="55.83" y1="37.01" x2="53.84" y2="39.8"/><rect class="cls-8" width="90" height="95"/></g></g></svg>