<svg xmlns="http://www.w3.org/2000/svg" viewBox="0 0 105.5 104.5"><defs><style>.cls-1{fill:#edb7b7;}.cls-1,.cls-2,.cls-3,.cls-4{stroke:#000;stroke-miterlimit:10;}.cls-2{fill:#f7d7d7;}.cls-3{fill:#fee;}.cls-4{fill:#e5801a;}</style></defs><g id="레이어_2" data-name="레이어 2"><g id="레이어_4" data-name="레이어 4"><rect class="cls-1" x="12" y="11" width="93" height="93"/><rect class="cls-2" x="6.5" y="5.5" width="93" height="93"/><rect class="cls-3" x="0.5" y="0.5" width="93" height="93"/><path class="cls-4" d="M79.26,37.86A15,15,0,0,0,62,27.77a15,15,0,0,0-29.83,0A15,15,0,0,0,23,56.14,15,15,0,0,0,47.12,73.67,15,15,0,0,0,71.24,56.14,15,15,0,0,0,79.26,37.86Zm-29.2,6.39a14.8,14.8,0,0,0,.63,2.89,15.31,15.31,0,0,0,1.18,2.71,15,15,0,0,0-2.55,1.49,14.8,14.8,0,0,0-2.2,2,15.4,15.4,0,0,0-2.21-2,15,15,0,0,0-2.55-1.49,15.31,15.31,0,0,0,1.18-2.71,14.83,14.83,0,0,0,.64-2.89,15,15,0,0,0,2.94.29A15.11,15.11,0,0,0,50.06,44.25Z"/></g></g></svg>