<svg xmlns="http://www.w3.org/2000/svg" viewBox="0 0 155.98 120.52"><defs><style>.cls-1{fill:#f7aaaa;}.cls-1,.cls-2,.cls-4{stroke:#000;stroke-miterlimit:10;}.cls-2{fill:#f4ce89;}.cls-3{fill:#ffa91e;}.cls-4{fill:none;}</style></defs><g id="레이어_2" data-name="레이어 2"><g id="레이어_1-2" data-name="레이어 1"><polygon class="cls-1" points="7.26 85.85 134.31 119.86 134.31 65.71 7.26 31.69 7.26 85.85"/><polygon class="cls-2" points="155.48 51.7 35.72 83.76 35.72 32.72 155.48 0.65 155.48 51.7"/><circle class="cls-3" cx="53.5" cy="13.64" r="7.81"/><circle class="cls-4" cx="53.5" cy="13.64" r="7.81"/><ellipse class="cls-3" cx="115.56" cy="92.79" rx="14.58" ry="8.33" transform="translate(-16.7 159.65) rotate(-65.58)"/><ellipse class="cls-4" cx="115.56" cy="92.79" rx="14.58" ry="8.33" transform="translate(-16.7 159.65) rotate(-65.58)"/><circle class="cls-3" cx="11.77" cy="74.39" r="9.89"/><circle class="cls-4" cx="11.77" cy="74.39" r="9.89"/><ellipse class="cls-3" cx="140.21" cy="31.35" rx="9.89" ry="11.98" transform="translate(-2.65 46.59) rotate(-18.69)"/><ellipse class="cls-4" cx="140.21" cy="31.35" rx="9.89" ry="11.98" transform="translate(-2.65 46.59) rotate(-18.69)"/></g></g></svg>