<svg xmlns="http://www.w3.org/2000/svg" viewBox="0 0 127.36 109.07"><defs><style>.cls-1{fill:#098bce;}.cls-1,.cls-2,.cls-3{stroke:#000;stroke-miterlimit:10;}.cls-2{fill:#ff8f8f;}.cls-3{fill:#73d0fb;}.cls-4{fill:none;}</style></defs><g id="Layer_2" data-name="Layer 2"><g id="레이어_1" data-name="레이어 1"><path class="cls-1" d="M118.31,19.43H54L43.51,11.75h0a8.85,8.85,0,0,0-6-2.37H9.37A8.88,8.88,0,0,0,.5,18.27V37.34H126.62v-9.6A8.31,8.31,0,0,0,118.31,19.43Z"/><path class="cls-2" d="M95.21,1.05C86.61,0,76.51,4.13,73.27,15.47c-2.06,7.21-6,11.5-11.46,16.82-6,5.82,3.17,15,9.16,9.16a26.83,26.83,0,0,0,3.76-4.64A5.92,5.92,0,0,0,82,36.54a7.46,7.46,0,0,0,4.47,2.88c.13,5.41,6.44,9.08,11,4.78a34.15,34.15,0,0,0,10.42-22.33C108.48,13,105.41,2.36,95.21,1.05Z"/><rect class="cls-3" x="0.5" y="25.78" width="126.12" height="82.79" rx="9.23"/><path class="cls-2" d="M94.32,8.18a87.1,87.1,0,0,1-4,13,13.83,13.83,0,0,1-2.92,4.65"/><rect class="cls-4" x="0.36" width="127" height="109"/></g></g></svg>