<svg xmlns="http://www.w3.org/2000/svg" viewBox="0 0 90 95.64"><defs><style>.cls-1{fill:#e01428;stroke:#000;stroke-miterlimit:10;}.cls-2{fill:none;}</style></defs><g id="Layer_2" data-name="Layer 2"><g id="레이어_1" data-name="레이어 1"><path class="cls-1" d="M5.15,51.94c0-6.81,0-13.62,0-20.44a24.67,24.67,0,0,1,.42-3.29c0-.39.27-.53.69-.52,7.27,0,14.54,0,21.8,0a14.6,14.6,0,0,1,3.44.91A23.4,23.4,0,0,1,48.87,48.73a25.36,25.36,0,0,1-4.1,18.05,21.38,21.38,0,0,1-16,9.41c-6.14.69-12.28.41-18.43.29l-2.64-.06A2.59,2.59,0,0,1,5.23,74c0-.83,0-1.66,0-2.49V51.94ZM18,64.78c2.75,0,5.37.12,8,0a10.85,10.85,0,0,0,8.65-4.66,13.46,13.46,0,0,0,2.17-10.22c-.73-4.54-3.14-7.82-7.56-9.45a17.44,17.44,0,0,0-10.41-.33A.92.92,0,0,0,18,41.18c0,7.56,0,15.13,0,22.69Z"/><path class="cls-1" d="M64.19,63.46a9.12,9.12,0,0,0,11.2,3.82,7.23,7.23,0,0,1,4.94-.08,10.92,10.92,0,0,1,4.11,2.13c1.56,1.34,1.61,2.81.1,4.24a13.8,13.8,0,0,1-6.35,3.29C72.29,78.29,66.5,78,61.11,75c-5.65-3.08-8.58-8.06-9-14.43A18.21,18.21,0,0,1,72.6,41a18.71,18.71,0,0,1,9.9,3.73A16.63,16.63,0,0,1,88.86,56.8a29.8,29.8,0,0,1,0,4.33,2.07,2.07,0,0,1-2.06,2.21,11.82,11.82,0,0,1-1.78.11H64.19Zm13-8.06a5.42,5.42,0,0,0-5.33-4.87c-.44,0-.88,0-1.32,0a6.55,6.55,0,0,0-6.35,4.9Z"/><path class="cls-1" d="M46.67,84H84.28a25,25,0,0,1,2.87.18c.95.12,1.34.63,1.07,1.51a15.54,15.54,0,0,1-3.71,6.9,9.7,9.7,0,0,1-7.05,2.58c-4.21,0-8.41-.07-12.61-.12l-4.91,0c-5.81,0-11.62,0-17.44,0-7.79,0-15.57.06-23.36.09-2.31,0-4.62.06-6.92,0a4.57,4.57,0,0,1-4-2.51c-1-1.71-1.94-3.41-2.89-5.14a7.48,7.48,0,0,1-.63-1.49A1.16,1.16,0,0,1,5.8,84.18,27.67,27.67,0,0,1,9.44,84Q28.06,83.94,46.67,84Z"/><rect class="cls-2" width="90" height="95"/></g></g></svg>