<svg xmlns="http://www.w3.org/2000/svg" viewBox="0 0 90 95.5"><defs><style>.cls-1,.cls-4{fill:#fff;}.cls-1,.cls-2,.cls-3{stroke:#000;stroke-miterlimit:10;}.cls-3{fill:#e01428;}.cls-5{fill:none;}</style></defs><g id="Layer_2" data-name="Layer 2"><g id="레이어_1" data-name="레이어 1"><polygon class="cls-1" points="9.47 41.82 22.93 74.81 45.64 59.37 38.37 37.58 9.47 41.82"/><ellipse class="cls-2" cx="28.12" cy="52.78" rx="10.77" ry="6.03" transform="translate(-17.54 14.16) rotate(-21.73)"/><path class="cls-3" d="M8.58,60.64C6.15,54.44,3.71,48.25,1.31,42a25.27,25.27,0,0,1-.78-3.14c-.1-.38.06-.58.44-.73C7.58,35.58,14.18,33,20.82,30.44a13.93,13.93,0,0,1,3.45-.39,22.86,22.86,0,0,1,23,12.09A24.77,24.77,0,0,1,49.92,60,20.89,20.89,0,0,1,38.7,74.29C33.36,77.1,27.67,79,22,81.12L19.61,82a2.52,2.52,0,0,1-3.09-1.31c-.32-.74-.62-1.49-.91-2.25q-3.5-8.91-7-17.82Zm16.29,7.09c2.5-1,4.93-1.8,7.24-2.87a10.59,10.59,0,0,0,6.22-7.33,13.19,13.19,0,0,0-1.67-10.07,11,11,0,0,0-10.24-5.9A17.14,17.14,0,0,0,16.82,45a.9.9,0,0,0-.37,1.29c2.72,6.87,5.4,13.76,8.1,20.64Z"/><path class="cls-3" d="M63.66,60.41a8.89,8.89,0,0,0,7.61,8.7,7,7,0,0,1,4.23,2.35,10.6,10.6,0,0,1,2.44,3.8c.66,1.9,0,3.17-2,3.64a13.44,13.44,0,0,1-7-.31c-5.69-1.67-10.44-4.77-13.57-9.88-3.28-5.36-3.34-11-.56-16.6a17.79,17.79,0,0,1,26.91-6.63,18.24,18.24,0,0,1,6.56,8,16.2,16.2,0,0,1-.52,13.33,26.8,26.8,0,0,1-2.11,3.67,2,2,0,0,1-2.81.87,12.07,12.07,0,0,1-1.57-.78q-8.42-4.83-16.81-9.68Zm14.94-.48a5.29,5.29,0,0,0-2.14-6.72c-.36-.24-.73-.46-1.1-.67a6.41,6.41,0,0,0-7.77,1Z"/><path class="cls-3" d="M47.75,84.08q18.38,0,36.76,0a21.92,21.92,0,0,1,2.8.17c.92.12,1.31.62,1,1.48a15.1,15.1,0,0,1-3.63,6.74A9.53,9.53,0,0,1,77.84,95c-4.11,0-8.22-.08-12.32-.12-1.6,0-3.2,0-4.8,0-5.68,0-11.36-.06-17,0-7.61,0-15.22.07-22.83.1-2.25,0-4.51,0-6.76,0a4.44,4.44,0,0,1-3.87-2.44c-.94-1.68-1.89-3.34-2.82-5a7,7,0,0,1-.62-1.46,1.13,1.13,0,0,1,1-1.63,28.12,28.12,0,0,1,3.56-.22Q29.56,84.07,47.75,84.08Z"/><circle class="cls-4" cx="32" cy="51.06" r="2.58"/><rect class="cls-5" width="90" height="95"/></g></g></svg>