<svg xmlns="http://www.w3.org/2000/svg" viewBox="0 0 90 95"><defs><style>.cls-1,.cls-3{fill:#fff;}.cls-2,.cls-3,.cls-4{stroke:#000;stroke-miterlimit:10;}.cls-4{fill:#939393;}.cls-5{fill:none;}</style></defs><g id="Layer_2" data-name="Layer 2"><g id="레이어_1" data-name="레이어 1"><circle class="cls-1" cx="44.32" cy="56.44" r="25.1"/><path class="cls-2" d="M57.49,52.6c0-1.51,3.44-2.83,6.27-3.49-1-7.16-4.23-12.37-8-12.37-4.63,0-8.38,7.81-8.38,17.45s3.75,17.44,8.38,17.44c4.3,0,7.84-6.76,8.32-15.46C61.18,55.53,57.49,54.17,57.49,52.6Z"/><path class="cls-3" d="M63.76,49.11c-2.83.66-6.27,2-6.27,3.49s3.69,2.93,6.58,3.57c0-.65.05-1.31.05-2A34.52,34.52,0,0,0,63.76,49.11Z"/><path class="cls-4" d="M65,23.91a2.31,2.31,0,0,1-2.77.34A35,35,0,0,0,45,19.51a2.31,2.31,0,0,1-2.22-1.75l-.35-1.41a2.32,2.32,0,0,0-2.81-1.69l-9.79,2.43a2.33,2.33,0,0,0-1.69,2.82l.4,1.62a2.32,2.32,0,0,1-1.09,2.57A34.62,34.62,0,0,0,14.75,36.64a2.32,2.32,0,0,1-2.63,1l-1.38-.4a2.33,2.33,0,0,0-2.88,1.59L5.07,48.56a2.33,2.33,0,0,0,1.59,2.88l1.61.46A2.31,2.31,0,0,1,10,54.12a34.66,34.66,0,0,0,4.51,17.29,2.32,2.32,0,0,1-.42,2.8l-1,1a2.32,2.32,0,0,0-.06,3.29l7,7.26a2.33,2.33,0,0,0,3.29.06l1.2-1.16a2.31,2.31,0,0,1,2.77-.33,35.19,35.19,0,0,0,7.92,3.38,34.53,34.53,0,0,0,9.31,1.35,2.33,2.33,0,0,1,2.22,1.76L47,92.24a2.33,2.33,0,0,0,2.82,1.69l9.79-2.43a2.33,2.33,0,0,0,1.69-2.82l-.4-1.62A2.31,2.31,0,0,1,62,84.49,34.78,34.78,0,0,0,74.7,72a2.31,2.31,0,0,1,2.63-1L81,72,85,57.79l-3.84-1.1a2.32,2.32,0,0,1-1.68-2.23A34.65,34.65,0,0,0,75,37.18a2.32,2.32,0,0,1,.42-2.81l1-1a2.32,2.32,0,0,0,.06-3.29l-7-7.26a2.32,2.32,0,0,0-3.28-.06ZM63.58,58.09A19.23,19.23,0,1,1,51.52,36.3,19.24,19.24,0,0,1,63.58,58.09Z"/><rect class="cls-5" width="90" height="95"/></g></g></svg>