<svg xmlns="http://www.w3.org/2000/svg" viewBox="0 0 90 95"><defs><style>.cls-1{fill:#939393;stroke:#000;stroke-miterlimit:10;}.cls-2{fill:none;}</style></defs><g id="Layer_2" data-name="Layer 2"><g id="레이어_1" data-name="레이어 1"><path class="cls-1" d="M77.48,37.42a2.31,2.31,0,0,1-2.59-1.05,34.78,34.78,0,0,0-5.3-6.79,34.09,34.09,0,0,0-7.49-5.69A2.32,2.32,0,0,1,61,21.27l.37-1.39A2.33,2.33,0,0,0,59.75,17L50,14.42a2.32,2.32,0,0,0-2.85,1.65l-.43,1.61a2.31,2.31,0,0,1-2.2,1.72,34.75,34.75,0,0,0-17.21,4.81,2.32,2.32,0,0,1-2.81-.36l-1-1a2.32,2.32,0,0,0-3.29,0L13.08,30a2.32,2.32,0,0,0,0,3.29l1.18,1.18a2.29,2.29,0,0,1,.39,2.75,34.73,34.73,0,0,0-4.42,17.31,2.32,2.32,0,0,1-1.72,2.26l-1.4.37A2.33,2.33,0,0,0,5.46,60l2.61,9.74a2.33,2.33,0,0,0,2.85,1.64l1.6-.43a2.31,2.31,0,0,1,2.59,1,34.78,34.78,0,0,0,5.3,6.79,34.09,34.09,0,0,0,7.49,5.69A2.32,2.32,0,0,1,29,87.07l-.37,1.39a2.33,2.33,0,0,0,1.64,2.85L40,93.92a2.33,2.33,0,0,0,2.85-1.64l.43-1.62a2.32,2.32,0,0,1,2.2-1.72,34.75,34.75,0,0,0,17.21-4.81,2.33,2.33,0,0,1,2.81.36l2.66,2.67L78.56,76.74l-2.82-2.82a2.3,2.3,0,0,1-.39-2.76,34.73,34.73,0,0,0,4.42-17.31,2.32,2.32,0,0,1,1.72-2.26l1.4-.37a2.33,2.33,0,0,0,1.65-2.85l-2.61-9.74A2.33,2.33,0,0,0,79.08,37ZM59.66,66.62a19.23,19.23,0,1,1,0-24.9A19.24,19.24,0,0,1,59.66,66.62Z"/><rect class="cls-2" width="90" height="95"/></g></g></svg>