<svg xmlns="http://www.w3.org/2000/svg" viewBox="0 0 167.25 167.97"><defs><style>.cls-1,.cls-3,.cls-5{fill:#fff;}.cls-1,.cls-2,.cls-3,.cls-4,.cls-5,.cls-6{stroke:#000;}.cls-1,.cls-5,.cls-6{stroke-linecap:round;}.cls-1{stroke-linejoin:round;}.cls-2{fill:#e2bf6f;}.cls-2,.cls-3,.cls-4,.cls-5,.cls-6{stroke-miterlimit:10;}.cls-4,.cls-6{fill:none;}</style></defs><g id="레이어_2" data-name="레이어 2"><g id="Layer_3" data-name="Layer 3"><path d="M53,102.59c-1-3.71-4.5-5-8-4.53a109.48,109.48,0,0,1-15.67,1.11c-8.34,0-8.36,13,0,13a131.62,131.62,0,0,0,19.12-1.58C51.94,110,53.85,105.67,53,102.59Z"/><path class="cls-1" d="M10.21,84a15.26,15.26,0,0,1,2.38-.45c1.84-.2,5.43-.54,6.72,1.13l.56.72a20,20,0,0,1,4.69.35,9.35,9.35,0,0,1,5.57,3.64c1.22,1.51,3.33,1.8,4.66,3.34,1.82,2.13,2,5.15,1.67,7.82a24,24,0,0,1-2.65,8.76c-.74,1.3-1.9,3.06-3.46,3.46s-3.24-.09-4,.79-2.17,4-6.38,4.07a9.81,9.81,0,0,1-5.85-1.71c-.56-.4-1-1.06-1.59-1.33a4,4,0,0,0-1.14-.19c-2.52-.29-5.24-.32-7.56-1.48-2.15-1.06-2.63-3.24-3.11-5.42a5.75,5.75,0,0,1,1.73-6.08c.47-.41,1.07-.85,1-1.53a10.26,10.26,0,0,0-.52-1.36,5.23,5.23,0,0,1,.19-4.21c1.25-2.12,3.29-2.83,3.69-3.43s-1-2.09-.11-4.25A5.13,5.13,0,0,1,10.21,84Z"/><path class="cls-1" d="M3.69,99.88c1.52-.63,5.63-2,7.55-1.79s4.3.71,4.58,1.07a3,3,0,0,1,.41.71l.46,1.21"/><path class="cls-1" d="M14.3,107.26c-.38.29-.84.61-1.32.92a9.16,9.16,0,0,1-2.53,1.19"/><path class="cls-1" d="M13,108.4a2.82,2.82,0,0,0,1.4.67"/><path class="cls-1" d="M6.8,90.85a19.81,19.81,0,0,1,9.07-1c3.84.5,5.06,2.5,5,3.84a8,8,0,0,1-.67,2.56,9.05,9.05,0,0,1-2.34,2.48,5.82,5.82,0,0,1-1.87.58"/><path class="cls-1" d="M19.81,90.89A6.25,6.25,0,0,0,20.1,86c-.51-1-.58-1.13-.58-1.13"/><path class="cls-1" d="M13.73,115.49c-.28-1.68.42-5.81,1.72-10.85s3.06-7,6.74-6.94c3.24.09,3.87,4.92,2.3,7.45a6.28,6.28,0,0,0,.14,6.53"/><path class="cls-1" d="M30.94,90.36a24.57,24.57,0,0,1-.5,6.44"/><path class="cls-1" d="M28.26,101.08s1.84,2.22.9,6.31-2.43,5.69-2.43,5.69"/><path class="cls-2" d="M162.29,123.47a39.73,39.73,0,0,0-15.14,7.8c-2.84,2.33-5.35,4.49-7.51,6.44a121.42,121.42,0,0,1-15.6-16,65,65,0,1,0-64,.86c-5.19,2.63-14.56,1.8-18.94,1.83a6.88,6.88,0,0,0-6.6,4.64,8.37,8.37,0,0,0-.35,4c.32,2,1.62,3.68,2.58,5.42,3.37,6.18,6.56,12.45,9.84,18.68l4.4,8.37a3.57,3.57,0,0,0,6.7-1.21A39.83,39.83,0,0,0,56,147.4c-1-3.23-2.05-6.14-3-8.72a41.79,41.79,0,0,0,14.65-3.5,18.93,18.93,0,0,0,7.52-6.61,65.38,65.38,0,0,0,35.12-.8c8.07,10.48,17.93,19.72,27.9,28.28a3.57,3.57,0,0,0,5-.38l22.68-26.42A3.56,3.56,0,0,0,162.29,123.47Z"/><path class="cls-3" d="M132.88,81.16a4.59,4.59,0,0,0-1.94-2c-2.15-1.09-4.72-.12-6.91.35a17.28,17.28,0,0,1-7.5.37c-4-.94-6.26-4-9.16-6.56a5.91,5.91,0,0,0-4.11-1.7,4.83,4.83,0,0,0-3.17,1.61A8.48,8.48,0,0,0,98,77.56c-.48,2.74,1,5.38,2.53,7.54a19.32,19.32,0,0,0,7,6.13,25.7,25.7,0,0,0,13,2.68c4-.26,8.47-1.46,11.3-4.49l.18-.2a7.92,7.92,0,0,0,1.6-5.17A6.39,6.39,0,0,0,132.88,81.16Z"/><line class="cls-4" x1="111.92" y1="77.43" x2="104.67" y2="89.44"/><line class="cls-4" x1="108.19" y1="74.25" x2="98.79" y2="82.47"/><line class="cls-4" x1="121.15" y1="80" x2="121.29" y2="93.54"/><line class="cls-4" x1="125.99" y1="79.21" x2="129.74" y2="91.27"/><line class="cls-4" x1="116.17" y1="80.03" x2="112.59" y2="92.89"/><path d="M112.84,52.94l-8.43-2,7.39-4.26c-1.56-7-7.85-12.82-12.3-11.89-5.23,1.08-8,9.19-6.12,18.12s7.6,15.27,12.83,14.18C110.65,66.2,113.29,60.2,112.84,52.94Z"/><path d="M141.68,52.94l-8.43-2,7.39-4.26c-1.56-7-7.85-12.82-12.3-11.89-5.23,1.08-8,9.19-6.11,18.12s7.59,15.27,12.82,14.18C139.49,66.2,142.13,60.2,141.68,52.94Z"/><path d="M108.73,45.92h0l0,.07Z"/><path d="M110.41,54l0-.08V54Z"/><path class="cls-4" d="M99.59,69.39a8.13,8.13,0,0,0-4.87,4.06c-1.62,3.24-1.08,4.91-1.08,4.91"/><path d="M130.9,107.56c-20.61,2.28-40.2,1.83-54.71-13.82-5-5.43-12.88,2.68-7.85,8.11,16.32,17.6,39.27,19.84,62.53,17.26,3-.33,5.62-2.26,5.62-5.66C136.49,110.64,133.92,107.22,130.9,107.56Z"/><path class="cls-5" d="M127.07,102.49s6.12-5,12.18-4.35,12.43,4,14.15,11.08.45,9.4,0,11.12a2.66,2.66,0,0,1-1.54,2s-.16,4.69-1.8,6.3a21.29,21.29,0,0,1-3.65,2.79s-1.88,4.72-5,6.36a8.55,8.55,0,0,1-9.39-.55,12.84,12.84,0,0,1-4.34-5.19,12.09,12.09,0,0,1-.39-2.17,14.08,14.08,0,0,1-8.73-7.62,3.82,3.82,0,0,1-3.7-2.05c-1.23-2.34-1.8-6.52,1.21-11.22s6-6,7.33-6.21S127.07,102.49,127.07,102.49Z"/><path class="cls-6" d="M129.55,104a30.48,30.48,0,0,0-3.84,3.77l-2.11,3.08"/><path class="cls-6" d="M121.46,122.57a9.82,9.82,0,0,1-.67-4.71,20.1,20.1,0,0,1,.84-3.93"/><path class="cls-6" d="M129.62,129.69a10.73,10.73,0,0,0,4.64.3c2.71-.38,3.56-.67,4.14-1.05l.58-.38"/><path class="cls-6" d="M134.94,129.89s1.06,1.86,2.4,2.2a6,6,0,0,0,2.76-.05"/><path class="cls-6" d="M147.48,131.13a10.39,10.39,0,0,0,.08-4.17,10,10,0,0,0-1-3.67"/><path class="cls-6" d="M151.76,122.73a15.61,15.61,0,0,0-.88-4,17.1,17.1,0,0,0-1.78-3.84"/></g></g></svg>