<svg xmlns="http://www.w3.org/2000/svg" viewBox="0 0 50.83 40.56"><defs><style>.cls-1{fill:#fff;}.cls-1,.cls-2,.cls-3{stroke:#000;stroke-miterlimit:10;}.cls-3{fill:none;stroke-width:2px;}</style></defs><g id="Layer_2" data-name="Layer 2"><g id="레이어_1" data-name="레이어 1"><ellipse class="cls-1" cx="10.27" cy="22.39" rx="9.77" ry="17.67"/><path class="cls-2" d="M13.67,21.29c0-1.05,2.39-2,4.36-2.42-.72-5-2.94-8.59-5.57-8.59-3.21,0-5.81,5.42-5.81,12.11S9.25,34.5,12.46,34.5c3,0,5.45-4.69,5.78-10.73C16.24,23.33,13.67,22.38,13.67,21.29Z"/><path class="cls-1" d="M18,18.87c-2,.46-4.36,1.37-4.36,2.42s2.57,2,4.57,2.48c0-.45,0-.91,0-1.38A24.82,24.82,0,0,0,18,18.87Z"/><path class="cls-1" d="M10.27,40.06c3.73,0,7-3.79,8.62-9.36a21.65,21.65,0,0,0-8.4-1.61A21.49,21.49,0,0,0,1.7,30.87C3.36,36.35,6.57,40.06,10.27,40.06Z"/><line class="cls-3" x1="10.27" x2="10.27" y2="4.7"/><line class="cls-3" x1="4.59" y1="1.37" x2="6.94" y2="5.68"/><line class="cls-3" x1="15.94" y1="1.37" x2="13.6" y2="5.68"/><ellipse class="cls-1" cx="40.56" cy="22.39" rx="9.77" ry="17.67"/><path class="cls-2" d="M44,21.29c0-1.05,2.39-2,4.36-2.42-.73-5-2.95-8.59-5.57-8.59-3.21,0-5.82,5.42-5.82,12.11S39.55,34.5,42.76,34.5c3,0,5.45-4.69,5.78-10.73C46.53,23.33,44,22.38,44,21.29Z"/><path class="cls-1" d="M48.33,18.87c-2,.46-4.36,1.37-4.36,2.42s2.56,2,4.57,2.48c0-.45,0-.91,0-1.38A24.82,24.82,0,0,0,48.33,18.87Z"/><path class="cls-1" d="M40.56,40.06c3.74,0,7-3.79,8.63-9.36a21.66,21.66,0,0,0-8.41-1.61A21.49,21.49,0,0,0,32,30.87C33.65,36.35,36.87,40.06,40.56,40.06Z"/><line class="cls-3" x1="40.56" x2="40.56" y2="4.7"/><line class="cls-3" x1="34.89" y1="1.37" x2="37.24" y2="5.68"/><line class="cls-3" x1="46.24" y1="1.37" x2="43.89" y2="5.68"/></g></g></svg>