<svg xmlns="http://www.w3.org/2000/svg" viewBox="0 0 90.88 95.5"><defs><style>.cls-1{fill:#fff;}.cls-1,.cls-2,.cls-3{stroke:#000;stroke-miterlimit:10;}.cls-2{fill:#5b5b5b;}.cls-3,.cls-4{fill:none;}</style></defs><g id="Layer_2" data-name="Layer 2"><g id="레이어_1" data-name="레이어 1"><rect class="cls-1" x="4.32" y="39.04" width="82.25" height="55.96" rx="5.26"/><rect class="cls-2" x="0.5" y="38.61" width="89.88" height="8.48"/><rect class="cls-2" x="0.5" y="86.52" width="89.88" height="8.48"/><rect x="7.49" y="38.65" width="8.36" height="8.36"/><rect x="24.32" y="38.65" width="8.36" height="8.36"/><rect x="41.15" y="38.65" width="8.36" height="8.36"/><rect x="57.99" y="38.65" width="8.36" height="8.36"/><rect x="74.82" y="38.65" width="8.36" height="8.36"/><polyline points="0.45 86.6 7.43 86.6 7.43 94.97 0.47 94.97"/><rect x="15.9" y="86.6" width="8.36" height="8.36"/><rect x="32.74" y="86.6" width="8.36" height="8.36"/><rect x="49.57" y="86.6" width="8.36" height="8.36"/><rect x="66.4" y="86.6" width="8.36" height="8.36"/><polyline points="90.44 94.97 83.39 94.97 83.39 86.6 90.38 86.6"/><line x1="90.38" y1="86.6" x2="90.45" y2="86.6"/><path class="cls-1" d="M45.44,75.18c15.38,0,27.85-6.45,27.85-14.41H17.59C17.59,68.73,30.06,75.18,45.44,75.18Z"/><line class="cls-3" x1="44.97" y1="75.18" x2="44.97" y2="60.77"/><line class="cls-3" x1="39.3" y1="74.82" x2="39.3" y2="60.72"/><line class="cls-3" x1="33.64" y1="73.87" x2="33.64" y2="60.72"/><line class="cls-3" x1="27.98" y1="71.85" x2="27.98" y2="60.72"/><line class="cls-3" x1="22.31" y1="68.9" x2="22.31" y2="60.72"/><line class="cls-3" x1="50.63" y1="74.82" x2="50.63" y2="60.72"/><line class="cls-3" x1="56.3" y1="73.87" x2="56.3" y2="60.72"/><line class="cls-3" x1="61.96" y1="72.2" x2="61.96" y2="60.72"/><line class="cls-3" x1="67.63" y1="69.58" x2="67.63" y2="60.72"/><rect class="cls-4" x="0.45" width="90" height="95"/></g></g></svg>