<svg xmlns="http://www.w3.org/2000/svg" viewBox="0 0 90.69 95.5"><defs><style>.cls-1{fill:#9e9e9e;}.cls-1,.cls-2,.cls-3{stroke:#000;stroke-miterlimit:10;}.cls-2{fill:#5b5b5b;}.cls-3{fill:#fff;}.cls-4{fill:none;}</style></defs><g id="Layer_2" data-name="Layer 2"><g id="레이어_1" data-name="레이어 1"><rect class="cls-1" x="4.3" y="39.24" width="81.94" height="55.76" rx="5.24"/><rect class="cls-2" x="0.5" y="38.82" width="89.55" height="8.45"/><rect class="cls-2" x="0.5" y="86.55" width="89.55" height="8.45"/><rect x="7.46" y="38.86" width="8.33" height="8.33"/><rect x="24.23" y="38.86" width="8.33" height="8.33"/><rect x="41" y="38.86" width="8.33" height="8.33"/><rect x="57.77" y="38.86" width="8.33" height="8.33"/><rect x="74.54" y="38.86" width="8.33" height="8.33"/><polyline points="0.45 86.63 7.41 86.63 7.41 94.97 0.47 94.97"/><rect x="15.85" y="86.63" width="8.33" height="8.33"/><rect x="32.62" y="86.63" width="8.33" height="8.33"/><rect x="49.39" y="86.63" width="8.33" height="8.33"/><rect x="66.16" y="86.63" width="8.33" height="8.33"/><polyline points="90.1 94.97 83.08 94.97 83.08 86.63 90.05 86.63"/><line x1="90.05" y1="86.63" x2="90.12" y2="86.63"/><path class="cls-3" d="M61,65.94,38.28,52.8a1.63,1.63,0,0,0-2.45,1.41V80.49a1.63,1.63,0,0,0,2.45,1.41L61,68.76A1.62,1.62,0,0,0,61,65.94Z"/><rect class="cls-4" x="0.69" width="90" height="95"/></g></g></svg>